<svg width="633" height="237" viewBox="0 0 633 237" fill="none" xmlns="http://www.w3.org/2000/svg">
<g clip-path="url(#clip0_3434_14051)">
<path d="M199.606 18.022C198.185 18.022 196.88 17.8408 195.677 17.4928C194.48 17.1376 193.552 16.6809 192.907 16.1227L195.655 12.5125C196.278 13.0054 197.039 13.4186 197.953 13.7376C198.866 14.0566 199.823 14.2233 200.831 14.2233C201.505 14.2233 202.071 14.1653 202.52 14.0421C202.969 13.9188 203.325 13.7521 203.578 13.5491C203.832 13.3461 204.006 13.0997 204.093 12.8169C204.216 12.4182 204.137 12.1065 203.847 11.8745C203.557 11.6425 203.151 11.454 202.621 11.3018C202.092 11.1568 201.498 11.0046 200.845 10.8596C200.193 10.7146 199.548 10.5189 198.924 10.2869C198.294 10.0549 197.75 9.75767 197.293 9.38069C196.829 9.01097 196.517 8.52526 196.343 7.92355C196.169 7.32185 196.235 6.56066 196.525 5.63273C196.851 4.59606 197.438 3.65363 198.272 2.81269C199.106 1.97176 200.171 1.29756 201.476 0.782846C202.774 0.268135 204.274 0.0144043 205.971 0.0144043C207.109 0.0144043 208.182 0.144894 209.204 0.398625C210.219 0.652356 211.082 1.02933 211.778 1.52229L209.117 5.16151C208.436 4.7193 207.725 4.38582 206.986 4.16109C206.246 3.93636 205.5 3.82762 204.738 3.82762C204.064 3.82762 203.499 3.90011 203.042 4.03785C202.585 4.17559 202.23 4.36407 201.976 4.59606C201.723 4.82804 201.549 5.08902 201.454 5.38625C201.331 5.76322 201.418 6.0677 201.701 6.29243C201.984 6.51716 202.397 6.6984 202.94 6.83614C203.484 6.97388 204.079 7.11887 204.731 7.2711C205.384 7.41609 206.029 7.60458 206.659 7.82931C207.29 8.05404 207.834 8.35127 208.298 8.72099C208.755 9.09072 209.066 9.57643 209.233 10.1781C209.4 10.7798 209.334 11.5338 209.052 12.44C208.733 13.4476 208.153 14.3756 207.319 15.2238C206.485 16.0719 205.42 16.7534 204.122 17.2681C202.832 17.7756 201.331 18.0365 199.613 18.0365L199.606 18.022Z" fill="#1AC1FF"/>
<path d="M207.556 17.6805L220.678 0.361572H225.506L227.702 17.6805H222.606L221.33 2.76114H223.258L212.558 17.6805H207.563H207.556ZM212.798 14.3168L215.204 10.7065H223.664L223.788 14.3168H212.805H212.798Z" fill="#1AC1FF"/>
<path d="M231.904 17.6805L236.152 4.24728H230.831L232.056 0.361572H247.57L246.345 4.24728H241.053L236.805 17.6805H231.904Z" fill="#1AC1FF"/>
<path d="M251.529 18.0275C248.97 18.0275 247.194 17.3243 246.208 15.9252C245.215 14.526 245.128 12.5324 245.94 9.95886L248.97 0.360596H253.871L250.884 9.81387C250.413 11.3 250.369 12.3584 250.754 13.0036C251.138 13.6488 251.834 13.9678 252.856 13.9678C253.878 13.9678 254.777 13.6488 255.56 13.0036C256.343 12.3584 256.966 11.3 257.438 9.81387L260.424 0.360596H265.245L262.215 9.95886C261.403 12.5324 260.055 14.5188 258.177 15.9252C256.299 17.3243 254.081 18.0275 251.522 18.0275H251.529Z" fill="#1AC1FF"/>
<path d="M270.3 17.6805L275.774 0.361572H283.966C285.879 0.361572 287.445 0.716795 288.678 1.42724C289.903 2.13769 290.722 3.13811 291.135 4.42126C291.548 5.70442 291.469 7.2413 290.903 9.02467C290.345 10.7863 289.453 12.3232 288.228 13.6136C287.003 14.9112 285.553 15.9116 283.879 16.6221C282.204 17.3325 280.406 17.6878 278.499 17.6878H270.308L270.3 17.6805ZM276.433 13.7731H279.529C280.522 13.7731 281.435 13.5846 282.291 13.2148C283.139 12.8451 283.886 12.3014 284.524 11.5837C285.162 10.866 285.64 10.0106 285.952 9.02467C286.271 8.01699 286.336 7.16156 286.148 6.45111C285.959 5.74066 285.553 5.20421 284.944 4.83448C284.328 4.46476 283.523 4.27628 282.537 4.27628H279.442L276.441 13.7731H276.433Z" fill="#FFF1F2"/>
<path d="M299.358 18.022C297.973 18.022 296.762 17.7973 295.733 17.3551C294.703 16.9129 293.884 16.2822 293.275 15.463C292.666 14.6438 292.297 13.6941 292.159 12.6067C292.028 11.5193 292.159 10.3231 292.579 9.01822C292.993 7.71332 293.609 6.52441 294.428 5.42974C295.247 4.34232 296.226 3.3854 297.349 2.57346C298.473 1.75427 299.691 1.12357 301.003 0.681354C302.315 0.239137 303.664 0.0144043 305.048 0.0144043C306.433 0.0144043 307.665 0.239137 308.688 0.681354C309.71 1.12357 310.522 1.76152 311.116 2.57346C311.718 3.39265 312.088 4.34232 312.233 5.42974C312.378 6.51716 312.24 7.71332 311.827 9.01822C311.413 10.3231 310.79 11.5193 309.956 12.6212C309.123 13.7231 308.151 14.6728 307.035 15.4775C305.926 16.2822 304.715 16.9129 303.41 17.3551C302.105 17.7973 300.757 18.022 299.35 18.022H299.358ZM300.641 13.9623C301.3 13.9623 301.953 13.8464 302.591 13.6144C303.229 13.3824 303.83 13.0489 304.389 12.6139C304.947 12.179 305.44 11.6498 305.875 11.0408C306.303 10.4319 306.643 9.75766 306.875 9.01097C307.114 8.24978 307.209 7.57558 307.165 6.97388C307.114 6.37217 306.948 5.85021 306.665 5.41524C306.382 4.98028 305.991 4.6468 305.498 4.41482C304.998 4.18284 304.425 4.06685 303.765 4.06685C303.106 4.06685 302.453 4.18284 301.815 4.41482C301.17 4.6468 300.568 4.98028 300.01 5.41524C299.452 5.85021 298.959 6.37217 298.524 6.97388C298.096 7.57558 297.763 8.25703 297.523 9.01097C297.291 9.75041 297.197 10.4319 297.241 11.0408C297.284 11.6498 297.451 12.179 297.734 12.6139C298.016 13.0489 298.408 13.3824 298.901 13.6144C299.394 13.8464 299.974 13.9623 300.633 13.9623H300.641Z" fill="#FFF1F2"/>
<path d="M311.662 17.6805L317.135 0.361572H321.166L324.616 12.1419H322.492L333.192 0.361572H337.223L331.801 17.6805H327.299L330.554 7.2123H331.322L323.333 15.9696H321.158L318.556 7.2123H319.498L316.193 17.6805H311.662Z" fill="#FFF1F2"/>
<path d="M335.266 17.6805L340.739 0.361572H348.656C350.236 0.361572 351.526 0.615303 352.505 1.13001C353.491 1.63748 354.144 2.37692 354.463 3.3411C354.782 4.30527 354.738 5.45069 354.318 6.77009C353.904 8.07499 353.237 9.2059 352.309 10.1628C351.382 11.1198 350.258 11.8592 348.946 12.3739C347.634 12.8959 346.191 13.1496 344.603 13.1496H339.405L342.254 11.0255L340.152 17.6805H335.251H335.266ZM342.102 11.5475L340.638 9.29289H345.538C346.561 9.29289 347.394 9.06816 348.039 8.62595C348.685 8.18373 349.127 7.56028 349.381 6.77009C349.634 5.9654 349.584 5.33469 349.221 4.89248C348.859 4.45026 348.163 4.22553 347.141 4.22553H342.24L345.132 1.97095L342.109 11.5475H342.102Z" fill="#FFF1F2"/>
<path d="M359.297 13.889H368.352L367.155 17.6733H353.251L358.724 0.361572H372.303L371.106 4.14578H362.371L359.29 13.8963L359.297 13.889ZM361.109 7.06006H369.149L367.989 10.721H359.949L361.109 7.06006Z" fill="#FFF1F2"/>
<path d="M373.562 17.6805L377.81 4.24728H372.489L373.714 0.361572H389.228L388.003 4.24728H382.71L378.462 17.6805H373.562Z" fill="#FFF1F2"/>
<path d="M392.782 17.6805L398.256 0.361572H407.114C409.391 0.361572 410.957 0.774791 411.812 1.60848C412.667 2.44216 412.885 3.53683 412.457 4.88523C412.175 5.77691 411.696 6.5526 411.015 7.21955C410.333 7.8865 409.507 8.41571 408.535 8.80718C407.564 9.1914 406.491 9.38714 405.317 9.38714L406.186 8.19823C407.404 8.19823 408.412 8.37946 409.202 8.75644C409.992 9.12616 410.529 9.66262 410.812 10.3658C411.094 11.069 411.073 11.9244 410.761 12.9249C410.29 14.4255 409.311 15.5927 407.839 16.4264C406.36 17.26 404.461 17.6733 402.141 17.6733H392.789L392.782 17.6805ZM398.749 14.1428H402.859C403.7 14.1428 404.381 13.9978 404.911 13.7078C405.44 13.4178 405.795 12.9756 405.983 12.3812C406.172 11.7867 406.092 11.3445 405.744 11.0545C405.396 10.7645 404.802 10.6195 403.961 10.6195H399.51L400.583 7.23405H404.294C405.121 7.23405 405.78 7.08906 406.281 6.81358C406.781 6.53085 407.122 6.11039 407.296 5.55218C407.47 4.99397 407.397 4.5735 407.071 4.30527C406.745 4.03704 406.165 3.8993 405.346 3.8993H401.982L398.741 14.1428H398.749Z" fill="#FFF1F2"/>
<path d="M411.812 17.6805L417.286 0.361572H422.186L416.713 17.6805H411.812Z" fill="#FFF1F2"/>
<path d="M426.172 18.022C424.751 18.022 423.446 17.8408 422.243 17.4928C421.047 17.1376 420.119 16.6809 419.474 16.1227L422.221 12.5125C422.837 13.0054 423.606 13.4186 424.519 13.7376C425.433 14.0566 426.39 14.2233 427.397 14.2233C428.071 14.2233 428.637 14.1653 429.086 14.0421C429.536 13.9188 429.891 13.7521 430.145 13.5491C430.399 13.3461 430.573 13.0997 430.66 12.8169C430.783 12.4182 430.703 12.1065 430.413 11.8745C430.123 11.6425 429.717 11.454 429.188 11.3018C428.659 11.1568 428.064 11.0046 427.412 10.8596C426.759 10.7146 426.114 10.5189 425.491 10.2869C424.86 10.0549 424.316 9.75767 423.86 9.38069C423.396 9.01097 423.084 8.52526 422.91 7.92355C422.736 7.32185 422.801 6.56066 423.091 5.63273C423.417 4.59606 423.997 3.65363 424.838 2.81269C425.672 1.97176 426.738 1.29756 428.042 0.782846C429.34 0.268135 430.841 0.0144043 432.537 0.0144043C433.675 0.0144043 434.748 0.144894 435.77 0.398625C436.785 0.652356 437.648 1.02933 438.344 1.52229L435.683 5.16151C435.002 4.7193 434.291 4.38582 433.552 4.16109C432.813 3.93636 432.066 3.82762 431.305 3.82762C430.631 3.82762 430.065 3.90011 429.608 4.03785C429.152 4.17559 428.796 4.36407 428.543 4.59606C428.289 4.82804 428.115 5.08902 428.021 5.38625C427.897 5.76322 427.984 6.0677 428.267 6.29243C428.55 6.51716 428.963 6.6984 429.507 6.83614C430.051 6.97388 430.645 7.11887 431.297 7.2711C431.95 7.42334 432.595 7.60458 433.226 7.82931C433.857 8.05404 434.4 8.35127 434.864 8.72099C435.321 9.09072 435.633 9.57643 435.799 10.1781C435.966 10.7798 435.901 11.5338 435.618 12.44C435.299 13.4476 434.719 14.3756 433.886 15.2238C433.045 16.0719 431.986 16.7534 430.689 17.2681C429.398 17.7756 427.897 18.0365 426.179 18.0365L426.172 18.022Z" fill="#FFF1F2"/>
<path d="M434.125 17.6805L447.246 0.361572H452.067L454.264 17.6805H449.168L447.899 2.76114H449.827L439.127 17.6805H434.132H434.125ZM439.366 14.3168L441.773 10.7065H450.233L450.356 14.3168H439.374H439.366Z" fill="#FFF1F2"/>
<path d="M149.476 45.0662L154.949 27.7473H163.808C166.084 27.7473 167.65 28.1678 168.505 28.9942C169.361 29.8279 169.578 30.9226 169.151 32.271C168.868 33.1627 168.389 33.9383 167.708 34.6125C167.027 35.2795 166.2 35.8087 165.229 36.2002C164.257 36.5916 163.184 36.7801 162.017 36.7801L162.887 35.5912C164.105 35.5912 165.113 35.7797 165.903 36.1494C166.693 36.5191 167.229 37.0556 167.512 37.7588C167.795 38.462 167.773 39.3174 167.461 40.3179C166.99 41.8185 166.012 42.9857 164.533 43.8193C163.054 44.653 161.154 45.0662 158.835 45.0662H149.483H149.476ZM155.442 41.5285H159.552C160.393 41.5285 161.075 41.3835 161.604 41.0935C162.133 40.8036 162.488 40.3614 162.677 39.7669C162.865 39.1724 162.786 38.7302 162.438 38.4403C162.09 38.1503 161.495 38.0053 160.654 38.0053H156.203L157.276 34.6198H160.988C161.814 34.6198 162.474 34.4821 162.974 34.1993C163.474 33.9166 163.815 33.4961 163.989 32.9379C164.163 32.3797 164.09 31.9592 163.764 31.691C163.438 31.4228 162.858 31.285 162.039 31.285H158.675L155.435 41.5285H155.442Z" fill="#FFF1F2"/>
<path d="M176.377 45.4142C173.818 45.4142 172.042 44.711 171.056 43.3119C170.063 41.9127 169.976 39.9191 170.788 37.3456L173.818 27.7473H178.719L175.732 37.2006C175.261 38.6867 175.217 39.7451 175.601 40.3903C175.985 41.0355 176.681 41.3545 177.704 41.3545C178.726 41.3545 179.625 41.0355 180.408 40.3903C181.191 39.7451 181.814 38.6867 182.285 37.2006L185.272 27.7473H190.093L187.063 37.3456C186.251 39.9191 184.902 41.9055 183.025 43.3119C181.147 44.711 178.929 45.4142 176.377 45.4142Z" fill="#FFF1F2"/>
<path d="M185.49 45.0665L198.611 27.7476H203.432L205.629 45.0665H200.532L199.264 30.1471H201.192L190.492 45.0665H185.497H185.49ZM190.731 41.7027L193.138 38.0925H201.598L201.721 41.7027H190.738H190.731Z" fill="#FFF1F2"/>
<path d="M209.835 45.0662L214.083 31.633H208.762L209.987 27.7473H225.501L224.276 31.633H218.983L214.735 45.0662H209.835Z" fill="#FFF1F2"/>
<path d="M235.031 45.4067C233.61 45.4067 232.305 45.2255 231.101 44.8775C229.905 44.5223 228.977 44.0656 228.332 43.5074L231.08 39.8971C231.696 40.3901 232.464 40.8033 233.378 41.1223C234.291 41.4413 235.248 41.608 236.256 41.608C236.93 41.608 237.495 41.5428 237.945 41.4195C238.394 41.2963 238.749 41.1296 239.003 40.9266C239.257 40.7236 239.431 40.4771 239.518 40.1944C239.641 39.7957 239.561 39.4839 239.271 39.2519C238.981 39.02 238.575 38.8315 238.039 38.6792C237.51 38.527 236.915 38.382 236.263 38.237C235.61 38.0848 234.965 37.8963 234.342 37.6643C233.711 37.4323 233.175 37.1351 232.711 36.7581C232.247 36.3884 231.935 35.9027 231.761 35.301C231.587 34.6993 231.645 33.9381 231.942 33.0102C232.268 31.9735 232.848 31.0311 233.689 30.1901C234.523 29.3492 235.589 28.675 236.894 28.1603C238.191 27.6456 239.692 27.3918 241.388 27.3918C242.526 27.3918 243.599 27.5223 244.622 27.7761C245.636 28.037 246.499 28.4068 247.195 28.8997L244.535 32.539C243.853 32.0967 243.135 31.7633 242.403 31.5385C241.664 31.3138 240.917 31.2051 240.156 31.2051C239.482 31.2051 238.916 31.2776 238.46 31.4153C238.003 31.5603 237.648 31.7415 237.394 31.9735C237.14 32.2055 236.966 32.4665 236.872 32.7637C236.749 33.1407 236.836 33.4451 237.118 33.6699C237.401 33.8946 237.814 34.0758 238.358 34.2136C238.902 34.3513 239.496 34.4963 240.149 34.6485C240.801 34.8008 241.446 34.982 242.077 35.2068C242.708 35.4242 243.251 35.7287 243.715 36.0984C244.172 36.4682 244.484 36.9539 244.651 37.5556C244.817 38.1573 244.752 38.9112 244.469 39.8174C244.15 40.8251 243.57 41.753 242.737 42.6012C241.896 43.4494 240.83 44.1308 239.54 44.6455C238.249 45.1602 236.741 45.414 235.031 45.414V45.4067Z" fill="#FFF1F2"/>
<path d="M251.113 41.282H260.168L258.972 45.0662H245.067L250.541 27.7473H264.119L262.923 31.5315H254.187L251.106 41.2748L251.113 41.282ZM252.926 34.4531H260.965L259.806 38.114H251.766L252.926 34.4531Z" fill="#FFF1F2"/>
<path d="M261.688 45.0662L267.162 27.7473H271.192L274.643 39.5277H272.512L283.212 27.7473H287.243L281.82 45.0662H277.318L280.573 34.598H281.342L273.353 43.3554H271.178L268.575 34.598H269.518L266.212 45.0662H261.681H261.688Z" fill="#FFF1F2"/>
<path d="M293.173 45.4142C290.622 45.4142 288.845 44.711 287.852 43.3119C286.859 41.9127 286.772 39.9191 287.584 37.3456L290.614 27.7473H295.515L292.528 37.2006C292.057 38.6867 292.013 39.7451 292.398 40.3903C292.782 41.0355 293.485 41.3545 294.507 41.3545C295.529 41.3545 296.428 41.0355 297.211 40.3903C297.994 39.7451 298.618 38.6867 299.089 37.2006L302.076 27.7473H306.897L303.866 37.3456C303.054 39.9191 301.706 41.9055 299.828 43.3119C297.951 44.711 295.732 45.4142 293.173 45.4142Z" fill="#FFF1F2"/>
<path d="M302.287 45.0662L315.408 27.7473H320.229L322.426 45.0662H317.329L316.061 30.1469H317.989L307.289 45.0662H302.294H302.287ZM307.528 41.7025L309.935 38.0923H318.395L318.518 41.7025H307.535H307.528Z" fill="#FFF1F2"/>
<path d="M334.7 45.0662L338.948 31.633H333.627L334.852 27.7473H350.366L349.141 31.633H343.849L339.601 45.0662H334.7Z" fill="#FFF1F2"/>
<path d="M346.718 45.0665L352.191 27.7476H360.107C361.688 27.7476 362.978 28.0013 363.957 28.516C364.935 29.0307 365.595 29.7629 365.914 30.7271C366.233 31.6913 366.19 32.8294 365.769 34.1488C365.356 35.4537 364.689 36.5774 363.761 37.5271C362.833 38.4767 361.717 39.2017 360.412 39.7019C359.107 40.2021 357.664 40.4558 356.077 40.4558H350.879L353.706 38.4042L351.604 45.0592H346.703L346.718 45.0665ZM353.554 38.9335L352.089 36.6789H356.99C358.012 36.6789 358.846 36.4541 359.491 36.0119C360.136 35.5697 360.579 34.9463 360.832 34.1561C361.086 33.3514 361.035 32.7207 360.673 32.2785C360.31 31.8362 359.614 31.6115 358.592 31.6115H353.692L356.577 29.3569L353.554 38.9335ZM357.425 45.0665L355.112 38.7595H360.332L362.666 45.0665H357.418H357.425Z" fill="#FFF1F2"/>
<path d="M362.949 45.0662L376.071 27.7473H380.892L383.088 45.0662H377.992L376.723 30.1469H378.652L367.951 45.0662H362.956H362.949ZM368.191 41.7025L370.597 38.0923H379.057L379.181 41.7025H368.198H368.191Z" fill="#FFF1F2"/>
<path d="M384.474 45.0662L389.947 27.7473H393.978L399.886 39.2739H397.979L401.626 27.7473H406.425L400.952 45.0662H396.921L391.013 33.5396H392.919L389.273 45.0662H384.474Z" fill="#FFF1F2"/>
<path d="M410.392 45.4067C408.971 45.4067 407.666 45.2255 406.47 44.8775C405.274 44.5223 404.346 44.0656 403.701 43.5074L406.448 39.8971C407.064 40.3901 407.833 40.8033 408.746 41.1223C409.66 41.4413 410.617 41.608 411.624 41.608C412.299 41.608 412.864 41.5428 413.313 41.4195C413.763 41.2963 414.118 41.1296 414.372 40.9266C414.626 40.7236 414.8 40.4771 414.887 40.1944C415.01 39.7957 414.93 39.4839 414.64 39.2519C414.35 39.02 413.944 38.8315 413.408 38.6792C412.878 38.527 412.284 38.382 411.632 38.237C410.979 38.0848 410.334 37.8963 409.71 37.6643C409.08 37.4323 408.536 37.1351 408.079 36.7581C407.615 36.3884 407.304 35.9027 407.13 35.301C406.956 34.6993 407.021 33.9381 407.311 33.0102C407.637 31.9735 408.224 31.0311 409.058 30.1901C409.892 29.3492 410.957 28.675 412.255 28.1603C413.553 27.6456 415.053 27.3918 416.75 27.3918C417.888 27.3918 418.961 27.5223 419.983 27.7761C420.998 28.037 421.861 28.4068 422.557 28.8997L419.896 32.539C419.215 32.0967 418.504 31.7633 417.765 31.5385C417.025 31.3138 416.278 31.2051 415.525 31.2051C414.85 31.2051 414.278 31.2776 413.821 31.4153C413.364 31.5603 413.009 31.7415 412.755 31.9735C412.502 32.2055 412.328 32.4665 412.233 32.7637C412.117 33.1407 412.197 33.4451 412.48 33.6699C412.762 33.8946 413.176 34.0758 413.719 34.2136C414.263 34.3513 414.858 34.4963 415.51 34.6485C416.162 34.8008 416.808 34.982 417.438 35.2068C418.069 35.4242 418.613 35.7287 419.077 36.0984C419.533 36.4682 419.852 36.9539 420.012 37.5556C420.179 38.1573 420.113 38.9112 419.831 39.8174C419.512 40.8251 418.932 41.753 418.098 42.6012C417.257 43.4494 416.199 44.1308 414.901 44.6455C413.611 45.1602 412.11 45.414 410.392 45.414V45.4067Z" fill="#FFF1F2"/>
<path d="M418.342 45.0662L431.464 27.7473H436.285L438.481 45.0662H433.385L432.116 30.1469H434.045L423.344 45.0662H418.35H418.342ZM423.584 41.7025L425.99 38.0923H434.451L434.574 41.7025H423.591H423.584Z" fill="#FFF1F2"/>
<path d="M439.867 45.0662L445.341 27.7473H450.19L444.717 45.0662H439.867ZM445.456 41.2313L446.921 35.7362L456.896 27.7473H462.29L452.329 35.787L448.704 38.636L445.456 41.2313ZM451.495 45.0662L448.117 37.9183L452.387 34.5038L457.186 45.0662H451.495Z" fill="#FFF1F2"/>
<path d="M464.069 45.4067C462.648 45.4067 461.343 45.2255 460.139 44.8775C458.943 44.5223 458.015 44.0656 457.37 43.5074L460.118 39.8971C460.734 40.3901 461.502 40.8033 462.416 41.1223C463.329 41.4413 464.286 41.608 465.294 41.608C465.968 41.608 466.533 41.5428 466.983 41.4195C467.432 41.2963 467.788 41.1296 468.041 40.9266C468.295 40.7236 468.469 40.4771 468.556 40.1944C468.679 39.7957 468.6 39.4839 468.31 39.2519C468.02 39.02 467.614 38.8315 467.077 38.6792C466.548 38.527 465.953 38.382 465.301 38.237C464.649 38.0848 464.003 37.8963 463.38 37.6643C462.749 37.4323 462.213 37.1351 461.749 36.7581C461.285 36.3884 460.973 35.9027 460.799 35.301C460.625 34.6993 460.683 33.9381 460.98 33.0102C461.307 31.9735 461.887 31.0311 462.727 30.1901C463.561 29.3492 464.627 28.675 465.932 28.1603C467.229 27.6456 468.73 27.3918 470.426 27.3918C471.565 27.3918 472.637 27.5223 473.66 27.7761C474.675 28.037 475.537 28.4068 476.233 28.8997L473.573 32.539C472.891 32.0967 472.174 31.7633 471.441 31.5385C470.702 31.3138 469.955 31.2051 469.194 31.2051C468.52 31.2051 467.954 31.2776 467.498 31.4153C467.041 31.5603 466.686 31.7415 466.432 31.9735C466.178 32.2055 466.004 32.4665 465.91 32.7637C465.787 33.1407 465.874 33.4451 466.156 33.6699C466.439 33.8946 466.852 34.0758 467.396 34.2136C467.94 34.3513 468.534 34.4963 469.187 34.6485C469.839 34.8008 470.484 34.982 471.115 35.2068C471.746 35.4242 472.29 35.7287 472.753 36.0984C473.21 36.4682 473.522 36.9539 473.689 37.5556C473.855 38.1573 473.79 38.9112 473.507 39.8174C473.188 40.8251 472.609 41.753 471.775 42.6012C470.934 43.4494 469.868 44.1308 468.578 44.6455C467.287 45.1602 465.78 45.414 464.069 45.414V45.4067Z" fill="#FFF1F2"/>
<path d="M474.103 45.0665L479.576 27.7476H484.477L479.004 45.0665H474.103Z" fill="#FFF1F2"/>
<path d="M24.1689 192.614L27.2427 177.252H30.7804L27.7067 192.614H24.1762H24.1689ZM28.1199 189.105L28.6056 184.98L37.3412 177.252H41.6401L33.5425 184.386L31.1937 186.379L28.1199 189.098V189.105ZM34.9054 192.614L30.5122 185.923L33.035 183.53L38.8926 192.614H34.8981H34.9054Z" fill="white"/>
<path d="M40.1904 192.62L42.5393 180.81H45.9392L43.5904 192.62H40.1904ZM44.8228 179.165C44.2211 179.165 43.7427 178.991 43.3729 178.65C43.0032 178.302 42.822 177.882 42.822 177.389C42.822 176.801 43.0322 176.316 43.4454 175.932C43.8587 175.54 44.4096 175.352 45.0766 175.352C45.6783 175.352 46.164 175.518 46.5337 175.845C46.9107 176.171 47.0919 176.577 47.0919 177.062C47.0919 177.693 46.8817 178.201 46.4685 178.585C46.048 178.976 45.497 179.165 44.8083 179.165H44.8228Z" fill="white"/>
<path d="M46.7725 192.622L49.1213 180.813H52.369L51.6876 184.17L51.3831 183.205C51.9123 182.256 52.601 181.589 53.4492 181.212C54.2974 180.835 55.3123 180.639 56.5012 180.639L55.885 183.8C55.74 183.785 55.6023 183.771 55.4791 183.764C55.3558 183.764 55.2253 183.756 55.0948 183.756C54.0872 183.756 53.2607 184.003 52.63 184.503C51.9921 184.996 51.5644 185.808 51.3469 186.917L50.2015 192.622H46.7797H46.7725Z" fill="white"/>
<path d="M56.1465 192.619L58.4953 180.81H61.8953L59.5465 192.619H56.1465ZM60.7789 179.165C60.1772 179.165 59.6987 178.991 59.329 178.65C58.9593 178.302 58.778 177.881 58.778 177.388C58.778 176.801 58.9883 176.315 59.4015 175.931C59.8147 175.54 60.3657 175.351 61.0326 175.351C61.6343 175.351 62.12 175.518 62.4898 175.844C62.8667 176.171 63.048 176.576 63.048 177.062C63.048 177.693 62.8377 178.2 62.4245 178.585C62.004 178.976 61.4531 179.165 60.7644 179.165H60.7789Z" fill="white"/>
<path d="M79.8885 180.637C80.8817 180.637 81.7226 180.847 82.4113 181.26C83.1 181.673 83.5858 182.29 83.883 183.094C84.173 183.899 84.1947 184.892 83.9482 186.081L82.6578 192.62H79.2361L80.4902 186.32C80.6787 185.443 80.6207 184.769 80.3162 184.298C80.0118 183.834 79.4753 183.595 78.7141 183.595C77.9094 183.595 77.2425 183.834 76.7205 184.305C76.1913 184.776 75.8288 185.53 75.6259 186.552L74.4152 192.613H70.9935L72.2404 186.313C72.4143 185.436 72.3564 184.762 72.0519 184.29C71.7474 183.827 71.2182 183.587 70.4642 183.587C69.6596 183.587 68.9926 183.826 68.4634 184.298C67.9342 184.769 67.5645 185.537 67.347 186.589L66.1581 192.606H62.7363L65.0851 180.796H68.3329L67.7167 183.805L67.1875 183.123C67.7312 182.275 68.4054 181.644 69.2028 181.231C70.0075 180.818 70.863 180.615 71.7691 180.615C72.5013 180.615 73.161 180.745 73.741 181.014C74.3282 181.275 74.8067 181.666 75.1764 182.188C75.5534 182.71 75.7636 183.355 75.8216 184.131L74.5022 183.805C75.0894 182.768 75.8361 181.978 76.7495 181.434C77.663 180.898 78.7069 180.622 79.874 180.622L79.8885 180.637Z" fill="white"/>
<path d="M99.4267 192.884C97.9334 192.884 96.6865 192.594 95.6933 192.007C94.7001 191.42 93.9969 190.608 93.5982 189.557C93.1995 188.513 93.1342 187.28 93.4097 185.859L95.1206 177.254H98.6946L96.9837 185.794C96.8532 186.483 96.817 187.084 96.875 187.592C96.9329 188.107 97.0852 188.527 97.3244 188.861C97.5636 189.194 97.8971 189.448 98.3248 189.607C98.7453 189.767 99.2455 189.847 99.8182 189.847C100.536 189.847 101.159 189.709 101.689 189.426C102.218 189.151 102.653 188.708 103.001 188.107C103.356 187.505 103.624 186.729 103.813 185.78L105.524 177.24H109.011L107.278 185.997C106.821 188.266 105.937 189.977 104.625 191.13C103.312 192.282 101.573 192.862 99.4267 192.862V192.884Z" fill="white"/>
<path d="M114.594 192.797C113.688 192.797 112.847 192.586 112.072 192.173C111.296 191.753 110.673 191.151 110.209 190.361C109.745 189.57 109.505 188.621 109.505 187.504C109.505 186.511 109.672 185.598 109.998 184.764C110.325 183.93 110.789 183.205 111.39 182.589C111.992 181.973 112.681 181.495 113.471 181.154C114.261 180.813 115.109 180.639 116.015 180.639C116.994 180.639 117.835 180.82 118.538 181.19C119.241 181.56 119.763 182.118 120.111 182.886C120.452 183.655 120.575 184.648 120.474 185.859C120.401 187.251 120.111 188.469 119.618 189.513C119.118 190.556 118.451 191.368 117.61 191.941C116.769 192.514 115.762 192.797 114.594 192.797ZM115.646 189.969C116.32 189.969 116.914 189.802 117.436 189.476C117.958 189.15 118.364 188.693 118.669 188.113C118.966 187.533 119.118 186.859 119.118 186.084C119.118 185.308 118.879 184.641 118.4 184.17C117.929 183.706 117.262 183.466 116.414 183.466C115.754 183.466 115.167 183.633 114.638 183.959C114.109 184.286 113.696 184.742 113.398 185.315C113.101 185.895 112.949 186.569 112.949 187.345C112.949 188.121 113.188 188.788 113.659 189.259C114.138 189.73 114.797 189.962 115.646 189.962V189.969ZM117.994 192.623L118.458 190.274L119.227 186.758L119.691 183.249L120.177 180.813H123.598L121.249 192.623H118.002H117.994Z" fill="white"/>
<path d="M133.614 180.639C134.621 180.639 135.484 180.849 136.18 181.263C136.883 181.676 137.376 182.292 137.673 183.097C137.963 183.901 137.992 184.895 137.76 186.084L136.441 192.622H133.019L134.288 186.301C134.462 185.438 134.397 184.771 134.078 184.307C133.766 183.843 133.186 183.604 132.352 183.604C131.519 183.604 130.772 183.851 130.192 184.351C129.612 184.844 129.221 185.612 128.996 186.634L127.807 192.622H124.385L126.734 180.813H129.982L129.3 184.148L128.815 183.14C129.387 182.278 130.091 181.647 130.932 181.241C131.772 180.835 132.664 180.639 133.599 180.639H133.614Z" fill="white"/>
<path d="M144.632 197.052C143.487 197.052 142.443 196.921 141.486 196.66C140.529 196.399 139.702 196.008 139.014 195.493L140.638 193.014C141.102 193.391 141.71 193.703 142.45 193.935C143.189 194.167 143.965 194.283 144.784 194.283C145.973 194.283 146.858 194.029 147.452 193.514C148.046 192.999 148.445 192.246 148.648 191.231L149.069 189.099L149.859 186.337L150.388 183.35L150.874 180.806H154.143L152.193 190.636C151.736 192.905 150.881 194.536 149.612 195.544C148.344 196.544 146.691 197.045 144.639 197.045L144.632 197.052ZM145.139 192.05C144.175 192.05 143.298 191.854 142.508 191.455C141.718 191.064 141.087 190.491 140.616 189.759C140.152 189.02 139.913 188.128 139.913 187.091C139.913 186.185 140.079 185.344 140.406 184.568C140.732 183.793 141.196 183.111 141.79 182.517C142.385 181.922 143.073 181.466 143.871 181.132C144.668 180.799 145.545 180.639 146.495 180.639C147.358 180.639 148.141 180.799 148.844 181.125C149.547 181.451 150.091 181.966 150.475 182.684C150.859 183.401 151.004 184.358 150.903 185.554C150.816 186.859 150.533 187.997 150.047 188.969C149.562 189.94 148.909 190.701 148.083 191.238C147.256 191.782 146.27 192.05 145.132 192.05H145.139ZM146.06 189.244C146.734 189.244 147.329 189.099 147.836 188.802C148.344 188.505 148.75 188.106 149.047 187.584C149.337 187.069 149.489 186.468 149.489 185.794C149.489 185.076 149.257 184.51 148.786 184.09C148.315 183.677 147.67 183.466 146.836 183.466C146.162 183.466 145.567 183.611 145.045 183.909C144.523 184.199 144.117 184.605 143.813 185.127C143.516 185.649 143.363 186.243 143.363 186.917C143.363 187.635 143.603 188.2 144.088 188.621C144.574 189.041 145.234 189.244 146.06 189.244Z" fill="white"/>
<path d="M166.627 192.881C165.554 192.881 164.612 192.722 163.793 192.41C162.973 192.098 162.328 191.649 161.864 191.069C161.393 190.489 161.161 189.807 161.161 189.017C161.161 188.125 161.408 187.343 161.893 186.668C162.386 185.994 163.075 185.385 163.967 184.834C164.858 184.283 165.91 183.776 167.127 183.312C168.15 182.913 168.933 182.565 169.476 182.261C170.02 181.956 170.39 181.659 170.585 181.383C170.781 181.108 170.883 180.804 170.883 180.485C170.883 180.166 170.759 179.919 170.52 179.702C170.281 179.491 169.94 179.383 169.498 179.383C168.94 179.383 168.49 179.535 168.142 179.832C167.787 180.137 167.613 180.55 167.613 181.072C167.613 181.362 167.7 181.673 167.889 181.992C168.07 182.319 168.374 182.725 168.802 183.225L175.45 190.735L173.166 192.888L165.881 184.595C165.409 184.066 165.061 183.551 164.829 183.036C164.597 182.522 164.474 181.985 164.474 181.412C164.474 180.506 164.706 179.723 165.177 179.078C165.649 178.426 166.272 177.933 167.055 177.585C167.838 177.244 168.701 177.07 169.636 177.07C170.44 177.07 171.151 177.193 171.774 177.433C172.398 177.672 172.883 178.027 173.246 178.498C173.601 178.969 173.782 179.535 173.782 180.209C173.782 181.014 173.55 181.717 173.101 182.319C172.652 182.92 172.006 183.457 171.173 183.928C170.339 184.407 169.353 184.87 168.208 185.32C167.417 185.639 166.75 185.958 166.214 186.262C165.67 186.567 165.264 186.893 164.996 187.241C164.728 187.589 164.59 187.98 164.59 188.437C164.59 188.952 164.8 189.372 165.214 189.713C165.627 190.047 166.25 190.221 167.069 190.221C167.889 190.221 168.751 190.01 169.563 189.597C170.375 189.184 171.122 188.56 171.811 187.734C172.499 186.908 173.072 185.9 173.521 184.718L176.131 185.574C175.515 187.096 174.732 188.408 173.782 189.503C172.833 190.605 171.745 191.446 170.535 192.026C169.324 192.613 168.019 192.903 166.627 192.903V192.881Z" fill="white"/>
<path d="M7.2998 220.641L10.3736 205.28H13.9548L10.881 220.641H7.2998Z" fill="white"/>
<path d="M18.5803 220.817C17.5436 220.817 16.5649 220.701 15.6515 220.469C14.7381 220.237 14.0276 219.939 13.5347 219.591L14.8468 217.112C15.3615 217.446 15.985 217.721 16.7244 217.924C17.4639 218.127 18.2106 218.229 18.9573 218.229C19.7619 218.229 20.3491 218.127 20.7116 217.924C21.0741 217.721 21.2626 217.438 21.2626 217.09C21.2626 216.815 21.1103 216.605 20.7986 216.467C20.4869 216.329 20.1027 216.213 19.6315 216.126C19.1602 216.039 18.66 215.938 18.1308 215.822C17.5944 215.706 17.0941 215.539 16.6157 215.329C16.1372 215.119 15.753 214.814 15.4485 214.408C15.1513 214.009 14.9991 213.48 14.9991 212.82C14.9991 211.929 15.2528 211.175 15.753 210.559C16.2532 209.942 16.9637 209.478 17.8626 209.152C18.7615 208.833 19.7837 208.667 20.9219 208.667C21.741 208.667 22.5385 208.753 23.3142 208.927C24.0899 209.101 24.7496 209.348 25.286 209.652L24.0536 212.153C23.4954 211.806 22.9155 211.566 22.3065 211.443C21.6975 211.32 21.1176 211.255 20.5594 211.255C19.7547 211.255 19.1747 211.371 18.8123 211.595C18.457 211.82 18.2758 212.095 18.2758 212.422C18.2758 212.697 18.428 212.915 18.7253 213.067C19.0225 213.219 19.4067 213.342 19.8779 213.437C20.3419 213.531 20.8494 213.632 21.3931 213.741C21.9295 213.85 22.437 214.009 22.9082 214.227C23.3722 214.437 23.7564 214.742 24.0609 215.126C24.3581 215.517 24.5103 216.039 24.5103 216.699C24.5103 217.591 24.2494 218.352 23.7346 218.968C23.2127 219.591 22.5095 220.055 21.6178 220.36C20.7261 220.664 19.7112 220.824 18.5658 220.824L18.5803 220.817Z" fill="white"/>
<path d="M25.938 220.646L28.2868 208.837H31.6868L29.338 220.646H25.938ZM30.5704 207.191C29.9687 207.191 29.4902 207.017 29.1205 206.676C28.7508 206.328 28.5695 205.908 28.5695 205.415C28.5695 204.828 28.7798 204.342 29.193 203.958C29.6062 203.566 30.1572 203.378 30.8241 203.378C31.4258 203.378 31.9115 203.544 32.2813 203.871C32.6582 204.197 32.8395 204.603 32.8395 205.089C32.8395 205.719 32.6292 206.227 32.216 206.611C31.7955 207.002 31.2446 207.191 30.5559 207.191H30.5704Z" fill="white"/>
<path d="M44.2992 220.907C43.4656 220.907 42.6536 220.827 41.8779 220.675C41.095 220.522 40.3845 220.312 39.7466 220.051C39.1086 219.79 38.5722 219.5 38.1372 219.196L39.5871 216.455C40.0728 216.789 40.5875 217.079 41.1385 217.325C41.6894 217.565 42.2621 217.746 42.8638 217.876C43.4656 218 44.06 218.065 44.6617 218.065C45.3214 218.065 45.8869 217.992 46.3581 217.847C46.8365 217.702 47.199 217.492 47.46 217.231C47.7137 216.97 47.8442 216.644 47.8442 216.267C47.8442 215.919 47.7065 215.629 47.4238 215.412C47.1483 215.194 46.7858 215.006 46.3363 214.853C45.8941 214.701 45.3939 214.549 44.8574 214.404C44.321 214.259 43.77 214.085 43.2263 213.889C42.6754 213.693 42.1824 213.44 41.7329 213.142C41.2835 212.845 40.921 212.461 40.6455 211.99C40.37 211.519 40.2323 210.939 40.2323 210.235C40.2323 209.184 40.5223 208.271 41.1022 207.495C41.6822 206.719 42.4941 206.118 43.5453 205.683C44.5965 205.248 45.8361 205.038 47.257 205.038C48.2937 205.038 49.2724 205.154 50.2003 205.378C51.121 205.603 51.9112 205.929 52.5709 206.357L51.2297 209.076C50.6425 208.677 49.9901 208.387 49.2796 208.184C48.5619 207.988 47.8225 207.887 47.0613 207.887C46.3726 207.887 45.7854 207.966 45.2924 208.126C44.7995 208.285 44.4297 208.51 44.176 208.793C43.9223 209.076 43.7918 209.402 43.7918 209.771C43.7918 210.141 43.9295 210.438 44.1977 210.663C44.466 210.888 44.8285 211.076 45.2852 211.236C45.7346 211.388 46.2348 211.54 46.7786 211.685C47.315 211.83 47.8587 211.997 48.4024 212.193C48.9461 212.381 49.4391 212.621 49.8958 212.918C50.3453 213.208 50.715 213.577 50.9905 214.027C51.266 214.476 51.4109 215.035 51.4109 215.702C51.4109 216.753 51.121 217.673 50.5338 218.456C49.9466 219.239 49.1274 219.848 48.069 220.276C47.0105 220.704 45.7564 220.921 44.3282 220.921L44.2992 220.907Z" fill="white"/>
<path d="M58.0696 220.823C57.1634 220.823 56.3225 220.613 55.5468 220.199C54.7711 219.779 54.1476 219.177 53.6837 218.387C53.2125 217.597 52.9805 216.647 52.9805 215.531C52.9805 214.538 53.1472 213.624 53.4734 212.79C53.7997 211.957 54.2636 211.232 54.8653 210.616C55.467 209.999 56.1557 209.521 56.9459 209.18C57.7361 208.84 58.5843 208.666 59.4905 208.666C60.4691 208.666 61.3101 208.847 62.0133 209.216C62.7165 209.586 63.2384 210.144 63.5864 210.913C63.9271 211.681 64.0504 212.674 63.9489 213.885C63.8764 215.277 63.5864 216.495 63.0934 217.539C62.5932 218.583 61.9263 219.395 61.0853 219.967C60.2444 220.54 59.2367 220.823 58.0696 220.823ZM59.1207 217.996C59.7949 217.996 60.3894 217.829 60.9114 217.503C61.4333 217.176 61.8393 216.72 62.1438 216.14C62.441 215.56 62.5932 214.886 62.5932 214.11C62.5932 213.334 62.354 212.667 61.8755 212.196C61.4043 211.732 60.7374 211.493 59.8892 211.493C59.2295 211.493 58.6423 211.66 58.1131 211.986C57.5839 212.312 57.1706 212.769 56.8734 213.341C56.5762 213.921 56.424 214.596 56.424 215.371C56.424 216.147 56.6632 216.814 57.1344 217.285C57.6129 217.756 58.2726 217.988 59.1207 217.988V217.996ZM61.4696 220.649L61.9335 218.3L62.702 214.784L63.1659 211.275L63.6517 208.84H67.0734L64.7246 220.649H61.4768H61.4696Z" fill="white"/>
<path d="M67.8779 220.641L71.1257 204.359H74.5474L71.2997 220.641H67.8779Z" fill="white"/>
<path d="M79.8576 220.817C78.9514 220.817 78.1105 220.606 77.3348 220.193C76.5591 219.773 75.9356 219.171 75.4644 218.381C74.9932 217.591 74.7612 216.641 74.7612 215.524C74.7612 214.531 74.928 213.618 75.2542 212.784C75.5877 211.95 76.0444 211.226 76.6461 210.609C77.2478 209.993 77.9437 209.515 78.7339 209.174C79.5241 208.833 80.3723 208.659 81.2785 208.659C82.1847 208.659 82.9966 208.819 83.6708 209.145C84.345 209.471 84.867 209.964 85.2439 210.631C85.6209 211.298 85.8021 212.132 85.8021 213.147C85.8021 214.227 85.6716 215.234 85.4179 216.162C85.1642 217.09 84.78 217.902 84.2653 218.598C83.7505 219.294 83.1271 219.838 82.3876 220.229C81.6482 220.628 80.8073 220.824 79.8503 220.824L79.8576 220.817ZM80.9088 217.989C81.583 217.989 82.1774 217.822 82.6994 217.496C83.2213 217.17 83.6273 216.713 83.9318 216.133C84.2363 215.553 84.3812 214.879 84.3812 214.104C84.3812 213.328 84.142 212.661 83.6708 212.19C83.1923 211.726 82.5326 211.486 81.6845 211.486C81.0248 211.486 80.4376 211.653 79.9083 211.979C79.3791 212.306 78.9659 212.762 78.6687 213.335C78.3642 213.915 78.2192 214.589 78.2192 215.365C78.2192 216.141 78.4584 216.808 78.9297 217.279C79.4081 217.75 80.0678 217.982 80.916 217.982L80.9088 217.989ZM83.2358 220.643L83.7215 218.294L84.4682 214.778L84.9322 211.269L86.3168 204.353H89.7386L86.4908 220.635H83.2431L83.2358 220.643Z" fill="white"/>
<path d="M95.8375 220.822C94.6414 220.822 93.5902 220.605 92.6985 220.163C91.8069 219.72 91.1109 219.111 90.6252 218.321C90.1322 217.531 89.8857 216.603 89.8857 215.53C89.8857 214.218 90.1902 213.036 90.8064 212.007C91.4226 210.978 92.2636 210.158 93.3437 209.557C94.4239 208.955 95.6491 208.658 97.0192 208.658C98.2371 208.658 99.281 208.875 100.165 209.317C101.05 209.76 101.739 210.369 102.232 211.152C102.725 211.934 102.964 212.87 102.964 213.95C102.964 215.255 102.659 216.422 102.043 217.459C101.427 218.495 100.586 219.314 99.5203 219.916C98.4473 220.518 97.2222 220.815 95.8303 220.815L95.8375 220.822ZM96.055 218.017C96.7292 218.017 97.3237 217.85 97.8456 217.524C98.3676 217.198 98.7736 216.741 99.0635 216.154C99.3535 215.566 99.4985 214.892 99.4985 214.117C99.4985 213.341 99.2665 212.688 98.7953 212.203C98.3241 211.717 97.6717 211.478 96.8235 211.478C96.1493 211.478 95.5548 211.644 95.0329 211.971C94.5109 212.304 94.1049 212.761 93.8004 213.341C93.5032 213.928 93.351 214.61 93.351 215.378C93.351 216.146 93.583 216.821 94.0542 217.299C94.5181 217.778 95.1851 218.017 96.0478 218.017H96.055Z" fill="white"/>
<path d="M110.453 220.641L113.526 205.28H119.957C121.537 205.28 122.893 205.541 124.031 206.063C125.162 206.577 126.032 207.324 126.633 208.281C127.235 209.238 127.532 210.376 127.532 211.696C127.532 213.015 127.3 214.284 126.844 215.386C126.38 216.487 125.727 217.423 124.879 218.206C124.031 218.989 123.023 219.59 121.849 220.018C120.682 220.438 119.384 220.656 117.963 220.656H110.453V220.641ZM114.599 217.72H118.065C119.311 217.72 120.37 217.466 121.24 216.951C122.11 216.437 122.777 215.741 123.233 214.864C123.697 213.986 123.922 212.993 123.922 211.877C123.922 211.116 123.763 210.463 123.436 209.912C123.11 209.361 122.624 208.941 121.979 208.644C121.327 208.339 120.515 208.194 119.551 208.194H116.499L114.585 217.72H114.599Z" fill="white"/>
<path d="M128.366 220.646L130.715 208.837H134.115L131.766 220.646H128.366ZM132.998 207.191C132.396 207.191 131.918 207.017 131.548 206.676C131.179 206.328 130.997 205.908 130.997 205.415C130.997 204.828 131.207 204.342 131.621 203.958C132.034 203.566 132.585 203.378 133.252 203.378C133.854 203.378 134.339 203.544 134.709 203.871C135.086 204.197 135.267 204.603 135.267 205.089C135.267 205.719 135.057 206.227 134.644 206.611C134.223 207.002 133.672 207.191 132.984 207.191H132.998Z" fill="white"/>
<path d="M139.974 225.079C138.829 225.079 137.785 224.949 136.828 224.688C135.871 224.427 135.045 224.035 134.356 223.521L135.98 221.041C136.444 221.418 137.053 221.73 137.792 221.962C138.532 222.194 139.307 222.31 140.127 222.31C141.315 222.31 142.2 222.056 142.794 221.542C143.389 221.027 143.787 220.273 143.99 219.258L144.411 217.127L145.201 214.365L145.73 211.378L146.216 208.833H149.486L147.535 218.663C147.079 220.933 146.223 222.564 144.955 223.571C143.686 224.572 142.033 225.072 139.982 225.072L139.974 225.079ZM140.482 220.077C139.518 220.077 138.64 219.881 137.85 219.483C137.06 219.091 136.429 218.519 135.958 217.786C135.494 217.047 135.255 216.155 135.255 215.119C135.255 214.212 135.422 213.371 135.748 212.596C136.074 211.82 136.538 211.139 137.132 210.544C137.727 209.95 138.416 209.493 139.213 209.159C140.011 208.833 140.888 208.667 141.837 208.667C142.7 208.667 143.483 208.826 144.186 209.152C144.889 209.478 145.433 209.993 145.817 210.711C146.209 211.429 146.347 212.385 146.245 213.582C146.158 214.887 145.875 216.025 145.39 216.996C144.904 217.968 144.251 218.729 143.425 219.265C142.599 219.802 141.613 220.077 140.474 220.077H140.482ZM141.402 217.272C142.077 217.272 142.671 217.127 143.179 216.829C143.693 216.539 144.092 216.133 144.389 215.611C144.679 215.097 144.831 214.495 144.831 213.821C144.831 213.103 144.599 212.538 144.128 212.117C143.657 211.704 143.012 211.494 142.178 211.494C141.504 211.494 140.909 211.639 140.387 211.936C139.866 212.226 139.46 212.632 139.155 213.154C138.858 213.676 138.706 214.27 138.706 214.945C138.706 215.662 138.945 216.228 139.431 216.648C139.916 217.069 140.576 217.272 141.402 217.272Z" fill="white"/>
<path d="M150.31 220.646L152.658 208.837H156.058L153.71 220.646H150.31ZM154.942 207.191C154.34 207.191 153.862 207.017 153.492 206.676C153.122 206.328 152.941 205.908 152.941 205.415C152.941 204.828 153.151 204.342 153.565 203.958C153.978 203.566 154.529 203.378 155.196 203.378C155.797 203.378 156.283 203.544 156.653 203.871C157.03 204.197 157.211 204.603 157.211 205.089C157.211 205.719 157.001 206.227 156.588 206.611C156.167 207.002 155.616 207.191 154.927 207.191H154.942Z" fill="white"/>
<path d="M157.247 211.733L157.776 209.102H165.961L165.432 211.733H157.247ZM161.698 220.817C160.85 220.817 160.125 220.643 159.523 220.302C158.922 219.962 158.494 219.461 158.24 218.809C157.987 218.156 157.943 217.388 158.117 216.496L160.154 206.224H163.576L161.532 216.475C161.445 216.968 161.495 217.366 161.684 217.656C161.872 217.946 162.227 218.098 162.735 218.098C162.967 218.098 163.206 218.062 163.453 217.99C163.692 217.917 163.917 217.816 164.12 217.685L164.627 220.121C164.199 220.382 163.735 220.563 163.221 220.672C162.706 220.781 162.198 220.824 161.684 220.824L161.698 220.817Z" fill="white"/>
<path d="M171.397 220.823C170.491 220.823 169.65 220.613 168.874 220.199C168.099 219.779 167.475 219.177 167.011 218.387C166.547 217.597 166.308 216.647 166.308 215.531C166.308 214.538 166.475 213.624 166.801 212.79C167.127 211.957 167.591 211.232 168.193 210.616C168.795 209.999 169.483 209.521 170.274 209.18C171.064 208.84 171.912 208.666 172.818 208.666C173.797 208.666 174.638 208.847 175.341 209.216C176.044 209.586 176.566 210.144 176.914 210.913C177.255 211.681 177.378 212.674 177.277 213.885C177.204 215.277 176.914 216.495 176.421 217.539C175.921 218.583 175.254 219.395 174.413 219.967C173.572 220.54 172.564 220.823 171.397 220.823ZM172.448 217.996C173.123 217.996 173.717 217.829 174.239 217.503C174.761 217.176 175.167 216.72 175.471 216.14C175.769 215.56 175.921 214.886 175.921 214.11C175.921 213.334 175.682 212.667 175.203 212.196C174.732 211.732 174.065 211.493 173.217 211.493C172.557 211.493 171.97 211.66 171.441 211.986C170.912 212.312 170.498 212.769 170.201 213.341C169.904 213.921 169.752 214.596 169.752 215.371C169.752 216.147 169.991 216.814 170.462 217.285C170.94 217.756 171.6 217.988 172.448 217.988V217.996ZM174.797 220.649L175.261 218.3L176.03 214.784L176.494 211.275L176.979 208.84H180.401L178.052 220.649H174.804H174.797Z" fill="white"/>
<path d="M181.214 220.641L184.462 204.359H187.883L184.636 220.641H181.214Z" fill="white"/>
<path d="M238.542 180.267L241.616 164.905H249.032C250.699 164.905 251.975 165.202 252.86 165.804C253.744 166.406 254.186 167.276 254.186 168.414C254.186 169.378 253.933 170.19 253.432 170.85C252.925 171.51 252.258 172.002 251.424 172.343C250.591 172.677 249.684 172.851 248.706 172.851L249.278 171.973C250.569 171.973 251.591 172.271 252.359 172.865C253.128 173.46 253.512 174.308 253.512 175.424C253.512 176.541 253.215 177.411 252.62 178.136C252.026 178.86 251.214 179.397 250.177 179.752C249.141 180.1 247.945 180.281 246.596 180.281H238.542V180.267ZM242.623 177.592H246.814C247.792 177.592 248.561 177.403 249.126 177.034C249.692 176.664 249.974 176.106 249.974 175.381C249.974 174.808 249.764 174.402 249.351 174.163C248.93 173.924 248.372 173.8 247.669 173.8H242.971L243.501 171.212H247.495C248.111 171.212 248.64 171.133 249.083 170.973C249.532 170.814 249.866 170.567 250.105 170.234C250.337 169.907 250.46 169.509 250.46 169.037C250.46 168.523 250.264 168.16 249.866 167.928C249.467 167.704 248.916 167.588 248.198 167.588H244.595L242.623 177.592Z" fill="white"/>
<path d="M260.444 180.45C259.537 180.45 258.696 180.239 257.921 179.826C257.145 179.406 256.522 178.804 256.058 178.014C255.586 177.224 255.354 176.274 255.354 175.157C255.354 174.164 255.521 173.251 255.847 172.417C256.174 171.583 256.638 170.859 257.239 170.242C257.841 169.626 258.53 169.148 259.32 168.807C260.11 168.466 260.958 168.292 261.865 168.292C262.843 168.292 263.684 168.473 264.387 168.843C265.091 169.213 265.612 169.771 265.96 170.54C266.301 171.308 266.424 172.301 266.323 173.512C266.25 174.904 265.96 176.122 265.467 177.166C264.967 178.209 264.3 179.021 263.459 179.594C262.618 180.167 261.611 180.45 260.444 180.45ZM261.495 177.622C262.169 177.622 262.763 177.456 263.285 177.129C263.807 176.803 264.213 176.346 264.518 175.766C264.815 175.186 264.967 174.512 264.967 173.737C264.967 172.961 264.728 172.294 264.25 171.823C263.778 171.359 263.111 171.12 262.263 171.12C261.604 171.12 261.016 171.286 260.487 171.612C259.958 171.939 259.545 172.395 259.247 172.968C258.95 173.548 258.798 174.222 258.798 174.998C258.798 175.774 259.037 176.441 259.508 176.912C259.987 177.383 260.647 177.615 261.495 177.615V177.622ZM263.844 180.276L264.308 177.927L265.076 174.411L265.54 170.902L266.026 168.466H269.447L267.099 180.276H263.851H263.844Z" fill="white"/>
<path d="M271.066 184.695C270.464 184.695 269.87 184.601 269.275 184.413C268.681 184.224 268.21 183.971 267.862 183.666L269.442 181.208C269.689 181.426 269.971 181.607 270.29 181.738C270.602 181.868 270.957 181.933 271.334 181.933C271.777 181.933 272.161 181.825 272.487 181.607C272.813 181.39 273.139 181.013 273.466 180.484L274.408 178.99L274.713 178.635L280.947 168.449H284.325L276.467 181.049C275.88 181.97 275.322 182.702 274.785 183.231C274.249 183.768 273.69 184.145 273.096 184.362C272.501 184.579 271.827 184.688 271.066 184.688V184.695ZM273.676 180.723L270.849 168.457H274.27L276.423 178.33L273.683 180.723H273.676Z" fill="white"/>
<path d="M288.385 180.45C287.479 180.45 286.638 180.239 285.862 179.826C285.087 179.406 284.463 178.804 283.999 178.014C283.528 177.224 283.296 176.274 283.296 175.157C283.296 174.164 283.463 173.251 283.789 172.417C284.115 171.583 284.579 170.859 285.181 170.242C285.782 169.626 286.471 169.148 287.261 168.807C288.052 168.466 288.9 168.292 289.806 168.292C290.785 168.292 291.626 168.473 292.329 168.843C293.032 169.213 293.554 169.771 293.902 170.54C294.243 171.308 294.366 172.301 294.264 173.512C294.192 174.904 293.902 176.122 293.409 177.166C292.909 178.209 292.242 179.021 291.401 179.594C290.56 180.167 289.552 180.45 288.385 180.45ZM289.436 177.622C290.11 177.622 290.705 177.456 291.227 177.129C291.749 176.803 292.155 176.346 292.459 175.766C292.756 175.186 292.909 174.512 292.909 173.737C292.909 172.961 292.669 172.294 292.191 171.823C291.72 171.359 291.053 171.12 290.205 171.12C289.545 171.12 288.958 171.286 288.428 171.612C287.899 171.939 287.486 172.395 287.189 172.968C286.892 173.548 286.739 174.222 286.739 174.998C286.739 175.774 286.979 176.441 287.45 176.912C287.928 177.383 288.588 177.615 289.436 177.615V177.622ZM291.785 180.276L292.249 177.927L293.017 174.411L293.481 170.902L293.967 168.466H297.389L295.04 180.276H291.792H291.785Z" fill="white"/>
<path d="M298.192 180.276L300.541 168.466H303.788L303.107 171.823L302.803 170.859C303.332 169.909 304.02 169.242 304.869 168.865C305.717 168.488 306.732 168.292 307.921 168.292L307.304 171.453C307.159 171.438 307.022 171.424 306.898 171.417C306.775 171.417 306.645 171.41 306.514 171.41C305.507 171.41 304.68 171.656 304.049 172.156C303.412 172.649 302.984 173.461 302.766 174.57L301.621 180.276H298.199H298.192Z" fill="white"/>
<path d="M322.05 180.536C320.498 180.536 319.164 180.253 318.041 179.688C316.917 179.123 316.062 178.34 315.46 177.339C314.858 176.339 314.561 175.179 314.561 173.859C314.561 172.54 314.786 171.322 315.242 170.206C315.692 169.089 316.344 168.118 317.185 167.284C318.026 166.451 319.027 165.813 320.194 165.341C321.361 164.87 322.644 164.638 324.065 164.638C325.616 164.638 326.95 164.921 328.074 165.486C329.19 166.052 330.053 166.835 330.655 167.835C331.257 168.836 331.554 169.996 331.554 171.315C331.554 172.634 331.329 173.852 330.872 174.969C330.416 176.085 329.77 177.056 328.929 177.89C328.089 178.717 327.088 179.362 325.921 179.833C324.754 180.304 323.463 180.536 322.05 180.536ZM322.354 177.506C323.217 177.506 324 177.346 324.689 177.035C325.384 176.723 325.972 176.288 326.457 175.73C326.943 175.172 327.306 174.534 327.567 173.809C327.82 173.084 327.951 172.323 327.951 171.518C327.951 170.757 327.791 170.09 327.465 169.51C327.146 168.93 326.675 168.48 326.051 168.161C325.428 167.842 324.667 167.676 323.761 167.676C322.854 167.676 322.122 167.835 321.434 168.147C320.745 168.459 320.158 168.894 319.665 169.452C319.172 170.01 318.802 170.648 318.548 171.373C318.295 172.098 318.164 172.859 318.164 173.664C318.164 174.425 318.331 175.092 318.657 175.672C318.983 176.252 319.462 176.701 320.085 177.02C320.709 177.339 321.463 177.506 322.354 177.506ZM326.349 183.806C324.928 183.806 323.695 183.472 322.651 182.798C321.608 182.124 320.73 181.123 320.027 179.79L323.935 178.999C324.239 179.804 324.609 180.369 325.029 180.688C325.457 181.007 325.964 181.174 326.566 181.174C327.037 181.174 327.494 181.08 327.936 180.891C328.378 180.703 328.792 180.442 329.154 180.101L330.495 182.233C330.002 182.762 329.386 183.153 328.661 183.422C327.936 183.682 327.168 183.813 326.349 183.813V183.806Z" fill="white"/>
<path d="M332.603 180.266L335.676 164.905H341.933C343.846 164.905 345.333 165.325 346.377 166.151C347.42 166.985 347.95 168.16 347.95 169.66C347.95 170.951 347.645 172.067 347.036 173.009C346.427 173.952 345.565 174.684 344.448 175.192C343.325 175.706 342.005 175.96 340.483 175.96H335.481L337.344 174.401L336.184 180.259H332.603V180.266ZM337.257 174.822L336.024 173.133H340.613C341.802 173.133 342.716 172.864 343.368 172.328C344.02 171.792 344.339 171.016 344.339 169.994C344.339 169.247 344.086 168.696 343.585 168.341C343.078 167.986 342.375 167.804 341.469 167.804H337.141L339.004 166.072L337.249 174.829L337.257 174.822ZM342.476 180.266L339.337 174.691H343.071L346.232 180.266H342.476Z" fill="white"/>
<path d="M348.737 180.266L351.811 164.905H355.392L352.319 180.266H348.737Z" fill="white"/>
<path d="M361.289 180.532C360.456 180.532 359.644 180.453 358.868 180.3C358.085 180.148 357.375 179.938 356.737 179.677C356.099 179.416 355.562 179.126 355.127 178.821L356.577 176.081C357.063 176.415 357.578 176.705 358.129 176.951C358.68 177.19 359.252 177.372 359.854 177.502C360.456 177.625 361.05 177.691 361.652 177.691C362.312 177.691 362.877 177.618 363.348 177.473C363.827 177.328 364.189 177.118 364.45 176.857C364.704 176.596 364.834 176.27 364.834 175.893C364.834 175.545 364.697 175.255 364.414 175.037C364.139 174.82 363.776 174.631 363.327 174.479C362.884 174.327 362.384 174.175 361.848 174.03C361.311 173.885 360.76 173.711 360.217 173.515C359.666 173.319 359.173 173.065 358.723 172.768C358.274 172.471 357.911 172.087 357.636 171.616C357.36 171.144 357.223 170.564 357.223 169.861C357.223 168.81 357.513 167.897 358.092 167.121C358.672 166.345 359.484 165.743 360.536 165.309C361.587 164.881 362.826 164.663 364.247 164.663C365.284 164.663 366.263 164.779 367.191 165.004C368.111 165.229 368.901 165.555 369.561 165.983L368.22 168.701C367.633 168.303 366.98 168.013 366.27 167.81C365.552 167.614 364.813 167.512 364.052 167.512C363.363 167.512 362.776 167.592 362.283 167.752C361.79 167.911 361.42 168.136 361.166 168.419C360.913 168.701 360.782 169.027 360.782 169.397C360.782 169.767 360.92 170.064 361.188 170.289C361.456 170.514 361.819 170.702 362.275 170.862C362.725 171.014 363.225 171.166 363.769 171.311C364.305 171.456 364.849 171.623 365.393 171.819C365.936 172.007 366.429 172.246 366.886 172.543C367.336 172.833 367.705 173.203 367.981 173.653C368.256 174.102 368.401 174.66 368.401 175.327C368.401 176.378 368.111 177.299 367.524 178.082C366.937 178.865 366.118 179.474 365.059 179.902C364.001 180.329 362.747 180.547 361.318 180.547L361.289 180.532Z" fill="white"/>
<path d="M376.149 180.267L379.223 164.905H385.436C387.357 164.905 388.836 165.326 389.88 166.167C390.924 167.008 391.453 168.182 391.453 169.69C391.453 170.98 391.156 172.104 390.554 173.061C389.952 174.018 389.097 174.757 387.973 175.265C386.857 175.779 385.53 176.033 383.993 176.033H379.013L380.898 174.409L379.738 180.267H376.157H376.149ZM380.804 174.823L379.557 173.133H384.146C385.313 173.133 386.226 172.865 386.879 172.329C387.531 171.792 387.857 171.017 387.857 169.994C387.857 169.248 387.611 168.697 387.111 168.342C386.618 167.986 385.914 167.805 385.001 167.805H380.68L382.565 166.072L380.811 174.83L380.804 174.823Z" fill="white"/>
<path d="M397.089 180.45C396.182 180.45 395.342 180.239 394.566 179.826C393.79 179.406 393.167 178.804 392.703 178.014C392.232 177.224 392 176.274 392 175.157C392 174.164 392.166 173.251 392.492 172.417C392.819 171.583 393.283 170.859 393.884 170.242C394.486 169.626 395.175 169.148 395.965 168.807C396.755 168.466 397.603 168.292 398.51 168.292C399.488 168.292 400.329 168.473 401.032 168.843C401.736 169.213 402.257 169.771 402.605 170.54C402.946 171.308 403.069 172.301 402.968 173.512C402.895 174.904 402.605 176.122 402.112 177.166C401.612 178.209 400.945 179.021 400.104 179.594C399.263 180.167 398.256 180.45 397.089 180.45ZM398.14 177.622C398.814 177.622 399.408 177.456 399.93 177.129C400.452 176.803 400.858 176.346 401.163 175.766C401.46 175.186 401.612 174.512 401.612 173.737C401.612 172.961 401.373 172.294 400.895 171.823C400.423 171.359 399.756 171.12 398.908 171.12C398.249 171.12 397.661 171.286 397.132 171.612C396.603 171.939 396.19 172.395 395.892 172.968C395.595 173.548 395.443 174.222 395.443 174.998C395.443 175.774 395.682 176.441 396.153 176.912C396.632 177.383 397.292 177.615 398.14 177.615V177.622ZM400.489 180.276L400.953 177.927L401.721 174.411L402.185 170.902L402.671 168.466H406.092L403.744 180.276H400.496H400.489Z" fill="white"/>
<path d="M406.896 180.268L410.143 163.985H413.565L410.317 180.268H406.896ZM410.317 177.897L411.064 173.663L417.407 168.458H421.858L415.254 173.968L413.34 175.374L410.31 177.897H410.317ZM415.783 180.268L412.753 175.309L415.145 172.699L419.756 180.275H415.783V180.268Z" fill="white"/>
<path d="M425.882 180.45C424.975 180.45 424.134 180.239 423.359 179.826C422.583 179.406 421.96 178.804 421.496 178.014C421.024 177.224 420.792 176.274 420.792 175.157C420.792 174.164 420.959 173.251 421.285 172.417C421.612 171.583 422.076 170.859 422.677 170.242C423.279 169.626 423.968 169.148 424.758 168.807C425.548 168.466 426.396 168.292 427.302 168.292C428.281 168.292 429.122 168.473 429.825 168.843C430.528 169.213 431.05 169.771 431.398 170.54C431.739 171.308 431.862 172.301 431.761 173.512C431.688 174.904 431.398 176.122 430.905 177.166C430.405 178.209 429.738 179.021 428.897 179.594C428.056 180.167 427.049 180.45 425.882 180.45ZM426.933 177.622C427.607 177.622 428.201 177.456 428.723 177.129C429.245 176.803 429.651 176.346 429.956 175.766C430.253 175.186 430.405 174.512 430.405 173.737C430.405 172.961 430.166 172.294 429.688 171.823C429.216 171.359 428.549 171.12 427.701 171.12C427.041 171.12 426.454 171.286 425.925 171.612C425.396 171.939 424.983 172.395 424.685 172.968C424.388 173.548 424.236 174.222 424.236 174.998C424.236 175.774 424.475 176.441 424.946 176.912C425.425 177.383 426.085 177.615 426.933 177.615V177.622ZM429.282 180.276L429.746 177.927L430.514 174.411L430.978 170.902L431.464 168.466H434.885L432.537 180.276H429.289H429.282Z" fill="white"/>
<path d="M435.69 180.272L438.039 168.462H441.439L439.09 180.272H435.69ZM440.323 166.817C439.721 166.817 439.243 166.643 438.873 166.302C438.503 165.954 438.322 165.534 438.322 165.041C438.322 164.454 438.532 163.968 438.945 163.584C439.359 163.192 439.91 163.004 440.577 163.004C441.178 163.004 441.664 163.17 442.034 163.497C442.411 163.823 442.592 164.229 442.592 164.715C442.592 165.345 442.382 165.853 441.968 166.237C441.548 166.628 440.997 166.817 440.308 166.817H440.323Z" fill="white"/>
<path d="M270.858 208.56C270.025 208.56 269.213 208.48 268.437 208.328C267.654 208.175 266.944 207.965 266.306 207.704C265.668 207.443 265.131 207.153 264.696 206.849L266.146 204.109C266.632 204.442 267.147 204.732 267.698 204.978C268.249 205.218 268.821 205.399 269.423 205.529C270.025 205.653 270.619 205.718 271.221 205.718C271.88 205.718 272.446 205.645 272.917 205.5C273.396 205.355 273.758 205.145 274.019 204.884C274.273 204.623 274.403 204.297 274.403 203.92C274.403 203.572 274.266 203.282 273.983 203.065C273.707 202.847 273.345 202.659 272.895 202.506C272.453 202.354 271.953 202.202 271.417 202.057C270.88 201.912 270.329 201.738 269.785 201.542C269.234 201.347 268.741 201.093 268.292 200.796C267.843 200.498 267.48 200.114 267.205 199.643C266.929 199.172 266.791 198.592 266.791 197.889C266.791 196.837 267.081 195.924 267.661 195.148C268.241 194.373 269.053 193.771 270.104 193.336C271.156 192.901 272.395 192.691 273.816 192.691C274.853 192.691 275.831 192.807 276.759 193.031C277.687 193.256 278.47 193.582 279.13 194.01L277.789 196.729C277.202 196.33 276.549 196.04 275.839 195.837C275.121 195.641 274.382 195.54 273.62 195.54C272.932 195.54 272.344 195.619 271.851 195.779C271.359 195.938 270.989 196.163 270.735 196.446C270.481 196.729 270.351 197.055 270.351 197.425C270.351 197.794 270.489 198.092 270.757 198.316C271.025 198.541 271.388 198.729 271.844 198.889C272.294 199.041 272.794 199.193 273.338 199.338C273.874 199.483 274.418 199.65 274.962 199.846C275.505 200.034 275.998 200.274 276.455 200.571C276.912 200.868 277.274 201.231 277.55 201.68C277.825 202.129 277.97 202.688 277.97 203.355C277.97 204.406 277.68 205.326 277.093 206.109C276.506 206.892 275.686 207.501 274.628 207.929C273.57 208.357 272.315 208.574 270.887 208.574L270.858 208.56Z" fill="white"/>
<path d="M284.618 208.477C283.712 208.477 282.871 208.267 282.095 207.853C281.319 207.433 280.696 206.831 280.232 206.041C279.761 205.251 279.529 204.301 279.529 203.185C279.529 202.192 279.696 201.278 280.022 200.445C280.348 199.611 280.812 198.886 281.414 198.27C282.015 197.653 282.704 197.175 283.494 196.834C284.284 196.494 285.133 196.32 286.039 196.32C287.017 196.32 287.858 196.501 288.562 196.871C289.265 197.24 289.787 197.798 290.135 198.567C290.475 199.335 290.599 200.329 290.497 201.539C290.425 202.931 290.135 204.149 289.642 205.193C289.142 206.237 288.475 207.049 287.634 207.621C286.793 208.194 285.785 208.477 284.618 208.477ZM285.669 205.65C286.343 205.65 286.938 205.483 287.46 205.157C287.982 204.83 288.388 204.374 288.692 203.794C288.989 203.214 289.142 202.54 289.142 201.764C289.142 200.988 288.902 200.321 288.424 199.85C287.953 199.386 287.286 199.147 286.438 199.147C285.778 199.147 285.191 199.314 284.661 199.64C284.132 199.966 283.719 200.423 283.422 200.995C283.125 201.575 282.972 202.25 282.972 203.025C282.972 203.801 283.212 204.468 283.683 204.939C284.161 205.41 284.821 205.642 285.669 205.642V205.65ZM288.018 208.303L288.482 205.954L289.25 202.438L289.714 198.929L290.2 196.494H293.622L291.273 208.303H288.025H288.018Z" fill="white"/>
<path d="M294.426 208.292L297.674 192.01H301.096L297.848 208.292H294.426Z" fill="white"/>
<path d="M306.412 208.468C305.506 208.468 304.665 208.257 303.889 207.844C303.113 207.424 302.49 206.822 302.019 206.032C301.547 205.242 301.315 204.292 301.315 203.176C301.315 202.182 301.482 201.269 301.808 200.435C302.142 199.602 302.599 198.877 303.2 198.26C303.802 197.644 304.498 197.166 305.288 196.825C306.078 196.484 306.927 196.31 307.833 196.31C308.739 196.31 309.551 196.47 310.225 196.796C310.899 197.122 311.421 197.615 311.798 198.282C312.175 198.949 312.356 199.783 312.356 200.798C312.356 201.878 312.226 202.886 311.972 203.814C311.718 204.741 311.334 205.553 310.819 206.249C310.305 206.945 309.681 207.489 308.942 207.88C308.202 208.279 307.361 208.475 306.405 208.475L306.412 208.468ZM307.463 205.64C308.137 205.64 308.732 205.474 309.254 205.147C309.776 204.821 310.182 204.364 310.486 203.784C310.79 203.205 310.935 202.53 310.935 201.755C310.935 200.979 310.696 200.312 310.225 199.841C309.747 199.377 309.087 199.138 308.239 199.138C307.579 199.138 306.992 199.304 306.463 199.631C305.933 199.957 305.52 200.414 305.223 200.986C304.918 201.566 304.773 202.24 304.773 203.016C304.773 203.792 305.013 204.459 305.484 204.93C305.962 205.401 306.622 205.633 307.47 205.633L307.463 205.64ZM309.79 208.294L310.276 205.945L311.022 202.429L311.486 198.92L312.871 192.004H316.293L313.045 208.286H309.797L309.79 208.294Z" fill="white"/>
<path d="M322.387 208.477C321.191 208.477 320.14 208.26 319.248 207.818C318.357 207.375 317.661 206.766 317.175 205.976C316.682 205.186 316.436 204.258 316.436 203.185C316.436 201.873 316.74 200.691 317.356 199.662C317.972 198.633 318.813 197.813 319.894 197.212C320.974 196.61 322.199 196.313 323.569 196.313C324.787 196.313 325.831 196.53 326.715 196.972C327.6 197.415 328.288 198.024 328.781 198.807C329.274 199.589 329.514 200.525 329.514 201.605C329.514 202.91 329.209 204.077 328.593 205.114C327.977 206.15 327.136 206.969 326.07 207.571C324.997 208.173 323.772 208.47 322.38 208.47L322.387 208.477ZM322.605 205.672C323.279 205.672 323.873 205.505 324.395 205.179C324.917 204.853 325.323 204.396 325.613 203.809C325.903 203.221 326.048 202.547 326.048 201.772C326.048 200.996 325.816 200.343 325.345 199.858C324.874 199.372 324.221 199.133 323.373 199.133C322.699 199.133 322.105 199.3 321.583 199.626C321.061 199.959 320.655 200.416 320.35 200.996C320.053 201.583 319.901 202.265 319.901 203.033C319.901 203.801 320.133 204.476 320.604 204.954C321.068 205.433 321.735 205.672 322.598 205.672H322.605Z" fill="white"/>
<path d="M337.003 208.293L340.077 192.932H346.507C348.087 192.932 349.443 193.193 350.581 193.715C351.712 194.229 352.582 194.976 353.184 195.933C353.785 196.89 354.083 198.028 354.083 199.347C354.083 200.667 353.851 201.935 353.394 203.037C352.93 204.139 352.278 205.074 351.429 205.857C350.581 206.64 349.573 207.242 348.399 207.67C347.232 208.09 345.934 208.308 344.513 208.308H337.003V208.293ZM341.15 205.372H344.615C345.862 205.372 346.92 205.118 347.79 204.603C348.66 204.089 349.327 203.393 349.784 202.515C350.248 201.638 350.472 200.645 350.472 199.529C350.472 198.767 350.313 198.115 349.987 197.564C349.66 197.013 349.175 196.593 348.53 196.295C347.877 195.991 347.065 195.846 346.101 195.846H343.049L341.135 205.372H341.15Z" fill="white"/>
<path d="M352.897 208.293L362.814 192.932H366.345L370.122 208.293H366.569L363.583 194.686H364.989L356.696 208.293H352.897ZM357 205.002L358.45 202.305H366.374L366.787 205.002H357Z" fill="white"/>
<path d="M371.729 208.293L374.803 192.932H377.746L384.35 204.06L383.19 203.994L385.387 192.932H388.896L385.822 208.293H382.9L376.274 197.165L377.463 197.231L375.245 208.293H371.736H371.729Z" fill="white"/>
<path d="M387.438 208.293L397.355 192.932H400.885L404.662 208.293H401.11L398.123 194.686H399.53L391.236 208.293H387.438ZM391.541 205.002L392.991 202.305H400.914L401.327 205.002H391.541Z" fill="white"/>
<path d="M403.923 210.499L415.182 189.824H418.386L407.106 210.499H403.923Z" fill="white"/>
<path d="M271.022 236.319L274.096 220.957H277.633L274.56 236.319H271.029H271.022ZM274.973 232.81L275.459 228.685L284.194 220.957H288.493L280.396 228.091L278.047 230.084L274.973 232.803V232.81ZM281.758 236.319L277.365 229.628L279.888 227.235L285.746 236.319H281.751H281.758Z" fill="white"/>
<path d="M291.902 236.504C290.995 236.504 290.155 236.294 289.379 235.881C288.603 235.46 287.98 234.859 287.516 234.068C287.052 233.278 286.812 232.329 286.812 231.212C286.812 230.219 286.979 229.306 287.305 228.472C287.632 227.638 288.096 226.913 288.697 226.297C289.299 225.681 289.988 225.202 290.778 224.862C291.568 224.521 292.416 224.347 293.322 224.347C294.301 224.347 295.142 224.528 295.845 224.898C296.548 225.268 297.07 225.826 297.418 226.594C297.759 227.363 297.882 228.356 297.781 229.567C297.708 230.958 297.418 232.176 296.925 233.22C296.425 234.264 295.758 235.076 294.917 235.649C294.076 236.222 293.069 236.504 291.902 236.504ZM292.953 233.677C293.627 233.677 294.221 233.51 294.743 233.184C295.265 232.858 295.671 232.401 295.976 231.821C296.273 231.241 296.425 230.567 296.425 229.791C296.425 229.016 296.186 228.349 295.708 227.877C295.236 227.413 294.569 227.174 293.721 227.174C293.062 227.174 292.474 227.341 291.945 227.667C291.416 227.993 291.003 228.45 290.705 229.023C290.408 229.603 290.256 230.277 290.256 231.053C290.256 231.828 290.495 232.495 290.966 232.967C291.445 233.438 292.105 233.67 292.953 233.67V233.677ZM295.302 236.33L295.766 233.981L296.534 230.465L296.998 226.957L297.484 224.521H300.905L298.557 236.33H295.309H295.302Z" fill="white"/>
<path d="M301.709 236.33L304.058 224.521H307.306L306.624 227.877L306.32 226.913C306.849 225.964 307.538 225.297 308.386 224.92C309.234 224.543 310.249 224.347 311.438 224.347L310.822 227.508C310.677 227.493 310.539 227.479 310.416 227.471C310.292 227.471 310.162 227.464 310.031 227.464C309.024 227.464 308.197 227.711 307.567 228.211C306.929 228.704 306.501 229.516 306.283 230.625L305.138 236.33H301.716H301.709Z" fill="white"/>
<path d="M311.842 227.412L312.372 224.78H320.556L320.027 227.412H311.842ZM316.293 236.495C315.445 236.495 314.72 236.322 314.119 235.981C313.517 235.64 313.089 235.14 312.835 234.487C312.582 233.835 312.538 233.067 312.712 232.175L314.749 221.902H318.171L316.127 232.153C316.04 232.646 316.09 233.045 316.279 233.335C316.467 233.625 316.823 233.777 317.33 233.777C317.562 233.777 317.801 233.741 318.048 233.668C318.287 233.596 318.512 233.494 318.715 233.364L319.222 235.8C318.795 236.061 318.331 236.242 317.816 236.351C317.301 236.459 316.794 236.503 316.279 236.503L316.293 236.495Z" fill="white"/>
<path d="M326.085 236.493C325.121 236.493 324.287 236.283 323.584 235.869C322.881 235.449 322.388 234.84 322.09 234.035C321.8 233.231 321.764 232.237 322.003 231.048L323.301 224.509H326.723L325.476 230.831C325.302 231.694 325.367 232.361 325.686 232.825C325.998 233.296 326.563 233.528 327.361 233.528C328.209 233.528 328.919 233.281 329.499 232.781C330.079 232.281 330.463 231.52 330.652 230.497L331.863 224.502H335.284L332.936 236.312H329.688L330.347 232.977L330.833 233.984C330.275 234.847 329.586 235.478 328.745 235.884C327.912 236.283 327.027 236.486 326.092 236.486L326.085 236.493Z" fill="white"/>
<path d="M342.552 236.32L345.626 220.958H353.042C354.71 220.958 355.985 221.255 356.87 221.857C357.754 222.459 358.197 223.329 358.197 224.467C358.197 225.431 357.943 226.243 357.443 226.903C356.935 227.563 356.268 228.055 355.435 228.396C354.601 228.73 353.695 228.904 352.716 228.904L353.289 228.026C354.579 228.026 355.601 228.324 356.37 228.918C357.138 229.513 357.522 230.361 357.522 231.477C357.522 232.594 357.225 233.464 356.631 234.188C356.036 234.913 355.224 235.45 354.188 235.805C353.151 236.153 351.955 236.334 350.606 236.334H342.552V236.32ZM346.634 233.645H350.824C351.803 233.645 352.571 233.456 353.136 233.087C353.702 232.717 353.985 232.159 353.985 231.434C353.985 230.861 353.774 230.455 353.361 230.216C352.941 229.977 352.383 229.853 351.679 229.853H346.982L347.511 227.265H351.505C352.122 227.265 352.651 227.186 353.093 227.026C353.542 226.867 353.876 226.62 354.115 226.287C354.347 225.96 354.47 225.562 354.47 225.09C354.47 224.576 354.275 224.213 353.876 223.981C353.477 223.757 352.926 223.641 352.209 223.641H348.606L346.634 233.645Z" fill="white"/>
<path d="M364.448 236.504C363.541 236.504 362.7 236.294 361.925 235.881C361.149 235.46 360.526 234.859 360.062 234.068C359.59 233.278 359.358 232.329 359.358 231.212C359.358 230.219 359.525 229.306 359.851 228.472C360.178 227.638 360.642 226.913 361.243 226.297C361.845 225.681 362.534 225.202 363.324 224.862C364.114 224.521 364.962 224.347 365.868 224.347C366.847 224.347 367.688 224.528 368.391 224.898C369.094 225.268 369.616 225.826 369.964 226.594C370.305 227.363 370.428 228.356 370.327 229.567C370.254 230.958 369.964 232.176 369.471 233.22C368.971 234.264 368.304 235.076 367.463 235.649C366.622 236.222 365.615 236.504 364.448 236.504ZM365.499 233.677C366.173 233.677 366.767 233.51 367.289 233.184C367.811 232.858 368.217 232.401 368.522 231.821C368.819 231.241 368.971 230.567 368.971 229.791C368.971 229.016 368.732 228.349 368.253 227.877C367.782 227.413 367.115 227.174 366.267 227.174C365.607 227.174 365.02 227.341 364.491 227.667C363.962 227.993 363.549 228.45 363.251 229.023C362.954 229.603 362.802 230.277 362.802 231.053C362.802 231.828 363.041 232.495 363.512 232.967C363.991 233.438 364.65 233.67 365.499 233.67V233.677ZM367.848 236.33L368.311 233.981L369.08 230.465L369.544 226.957L370.03 224.521H373.451L371.103 236.33H367.855H367.848Z" fill="white"/>
<path d="M383.483 224.347C384.491 224.347 385.354 224.557 386.05 224.97C386.753 225.384 387.246 226 387.543 226.804C387.833 227.609 387.862 228.602 387.63 229.791L386.311 236.33H382.889L384.158 230.009C384.332 229.146 384.266 228.479 383.947 228.015C383.636 227.551 383.056 227.312 382.222 227.312C381.388 227.312 380.642 227.558 380.062 228.059C379.482 228.552 379.09 229.32 378.866 230.342L377.677 236.33H374.255L376.604 224.521H379.851L379.17 227.856L378.684 226.848C379.257 225.985 379.96 225.355 380.801 224.949C381.642 224.543 382.534 224.347 383.469 224.347H383.483Z" fill="white"/>
<path d="M389.43 236.319L392.677 220.037H396.099L392.851 236.319H389.43ZM392.851 233.949L393.598 229.715L399.941 224.51H404.393L397.788 230.02L395.874 231.426L392.844 233.949H392.851ZM398.318 236.319L395.287 231.361L397.68 228.751L402.29 236.327H398.318V236.319Z" fill="white"/>
<path d="M523.598 194.539C522.764 194.539 521.952 194.459 521.177 194.307C520.394 194.155 519.683 193.945 519.045 193.684C518.407 193.423 517.871 193.133 517.436 192.828L518.886 190.088C519.372 190.422 519.886 190.711 520.437 190.958C520.988 191.197 521.561 191.378 522.163 191.509C522.764 191.632 523.359 191.697 523.961 191.697C524.62 191.697 525.186 191.625 525.657 191.48C526.135 191.335 526.498 191.125 526.759 190.864C527.013 190.603 527.143 190.277 527.143 189.9C527.143 189.552 527.005 189.262 526.723 189.044C526.447 188.827 526.085 188.638 525.635 188.486C525.193 188.334 524.693 188.181 524.156 188.036C523.62 187.891 523.069 187.717 522.525 187.522C521.974 187.326 521.481 187.072 521.032 186.775C520.582 186.478 520.22 186.094 519.944 185.622C519.669 185.151 519.531 184.571 519.531 183.868C519.531 182.817 519.821 181.903 520.401 181.128C520.981 180.352 521.793 179.75 522.844 179.315C523.895 178.88 525.135 178.67 526.556 178.67C527.593 178.67 528.571 178.786 529.499 179.011C530.42 179.236 531.21 179.562 531.87 179.99L530.529 182.708C529.941 182.309 529.289 182.019 528.578 181.816C527.861 181.621 527.121 181.519 526.36 181.519C525.671 181.519 525.084 181.599 524.591 181.758C524.098 181.918 523.729 182.143 523.475 182.425C523.221 182.708 523.091 183.034 523.091 183.404C523.091 183.774 523.228 184.071 523.497 184.296C523.765 184.52 524.127 184.709 524.584 184.868C525.033 185.021 525.534 185.173 526.077 185.318C526.614 185.463 527.158 185.63 527.701 185.825C528.245 186.014 528.738 186.253 529.195 186.55C529.644 186.84 530.014 187.21 530.289 187.659C530.565 188.109 530.71 188.667 530.71 189.334C530.71 190.385 530.42 191.306 529.833 192.089C529.245 192.872 528.426 193.481 527.368 193.909C526.309 194.336 525.055 194.554 523.627 194.554L523.598 194.539Z" fill="white"/>
<path d="M532.02 194.279L534.369 182.469H537.769L535.42 194.279H532.02ZM536.652 180.824C536.051 180.824 535.572 180.65 535.203 180.309C534.833 179.961 534.652 179.541 534.652 179.048C534.652 178.46 534.862 177.975 535.275 177.59C535.688 177.199 536.239 177.01 536.906 177.01C537.508 177.01 537.994 177.177 538.363 177.503C538.74 177.83 538.922 178.236 538.922 178.721C538.922 179.352 538.711 179.86 538.298 180.244C537.878 180.635 537.327 180.824 536.638 180.824H536.652Z" fill="white"/>
<path d="M555.778 182.3C556.771 182.3 557.612 182.51 558.301 182.923C558.99 183.336 559.475 183.952 559.773 184.757C560.063 185.562 560.084 186.555 559.838 187.744L558.548 194.283H555.126L556.38 187.983C556.568 187.106 556.51 186.432 556.206 185.961C555.901 185.497 555.365 185.257 554.604 185.257C553.799 185.257 553.132 185.497 552.61 185.968C552.081 186.439 551.719 187.193 551.516 188.215L550.305 194.276H546.883L548.13 187.976C548.304 187.099 548.246 186.425 547.942 185.953C547.637 185.489 547.108 185.25 546.354 185.25C545.549 185.25 544.882 185.489 544.353 185.961C543.824 186.432 543.454 187.2 543.237 188.251L542.048 194.268H538.626L540.975 182.459H544.223L543.606 185.468L543.077 184.786C543.621 183.938 544.295 183.307 545.093 182.894C545.897 182.481 546.753 182.278 547.659 182.278C548.391 182.278 549.051 182.408 549.631 182.677C550.218 182.938 550.696 183.329 551.066 183.851C551.443 184.373 551.653 185.018 551.711 185.794L550.392 185.468C550.979 184.431 551.726 183.641 552.639 183.097C553.553 182.561 554.597 182.285 555.764 182.285L555.778 182.3Z" fill="white"/>
<path d="M560.78 198.54L563.985 182.475H567.232L566.747 184.824L566 188.333L565.536 191.842L564.202 198.533H560.78V198.54ZM569.182 194.459C568.233 194.459 567.399 194.278 566.696 193.908C565.985 193.538 565.456 192.973 565.108 192.204C564.753 191.436 564.63 190.443 564.731 189.232C564.818 187.826 565.108 186.608 565.601 185.564C566.094 184.527 566.761 183.722 567.609 183.15C568.457 182.577 569.458 182.294 570.618 182.294C571.538 182.294 572.387 182.504 573.162 182.918C573.938 183.331 574.562 183.933 575.025 184.716C575.497 185.498 575.729 186.455 575.729 187.579C575.729 188.558 575.562 189.471 575.221 190.312C574.888 191.153 574.416 191.885 573.829 192.494C573.242 193.11 572.546 193.589 571.756 193.93C570.966 194.278 570.11 194.444 569.19 194.444L569.182 194.459ZM568.791 191.631C569.48 191.631 570.081 191.465 570.589 191.139C571.096 190.812 571.509 190.356 571.807 189.776C572.104 189.196 572.256 188.521 572.256 187.746C572.256 186.97 572.024 186.303 571.553 185.832C571.082 185.368 570.422 185.129 569.559 185.129C568.9 185.129 568.312 185.295 567.783 185.622C567.254 185.948 566.848 186.405 566.551 186.977C566.261 187.557 566.109 188.231 566.109 189.007C566.109 189.783 566.341 190.45 566.812 190.921C567.283 191.392 567.936 191.624 568.784 191.624L568.791 191.631Z" fill="white"/>
<path d="M582.102 194.456C581.196 194.456 580.355 194.246 579.579 193.833C578.804 193.412 578.18 192.811 577.716 192.021C577.245 191.23 577.013 190.281 577.013 189.164C577.013 188.171 577.18 187.258 577.506 186.424C577.832 185.59 578.296 184.865 578.898 184.249C579.5 183.633 580.188 183.155 580.979 182.814C581.769 182.473 582.617 182.299 583.523 182.299C584.502 182.299 585.343 182.48 586.046 182.85C586.749 183.22 587.271 183.778 587.619 184.546C587.96 185.315 588.083 186.308 587.982 187.519C587.909 188.911 587.619 190.128 587.126 191.172C586.626 192.216 585.959 193.028 585.118 193.601C584.277 194.174 583.269 194.456 582.102 194.456ZM583.153 191.629C583.828 191.629 584.422 191.462 584.944 191.136C585.466 190.81 585.872 190.353 586.176 189.773C586.474 189.193 586.626 188.519 586.626 187.743C586.626 186.968 586.387 186.301 585.908 185.83C585.437 185.366 584.77 185.126 583.922 185.126C583.262 185.126 582.675 185.293 582.146 185.619C581.617 185.946 581.203 186.402 580.906 186.975C580.609 187.555 580.457 188.229 580.457 189.005C580.457 189.781 580.696 190.447 581.167 190.919C581.646 191.39 582.305 191.622 583.153 191.622V191.629ZM585.502 194.282L585.966 191.934L586.735 188.418L587.199 184.909L587.684 182.473H591.106L588.757 194.282H585.51H585.502Z" fill="white"/>
<path d="M601.139 182.299C602.147 182.299 603.01 182.509 603.706 182.923C604.409 183.336 604.902 183.952 605.199 184.757C605.489 185.561 605.518 186.554 605.286 187.743L603.966 194.282H600.545L601.813 187.961C601.987 187.098 601.922 186.431 601.603 185.967C601.291 185.503 600.711 185.264 599.878 185.264C599.044 185.264 598.297 185.511 597.717 186.011C597.138 186.504 596.746 187.272 596.521 188.294L595.332 194.282H591.911L594.259 182.473H597.507L596.826 185.808L596.34 184.8C596.913 183.937 597.616 183.307 598.457 182.901C599.298 182.495 600.19 182.299 601.125 182.299H601.139Z" fill="white"/>
<path d="M493.274 222.298L496.348 206.937H499.886L496.812 222.298H493.282H493.274ZM497.225 218.789L497.711 214.664L506.447 206.937H510.746L502.648 214.07L500.299 216.064L497.225 218.782V218.789ZM504.011 222.298L499.618 215.607L502.14 213.215L507.998 222.298H504.004H504.011Z" fill="white"/>
<path d="M514.153 222.484C513.247 222.484 512.406 222.274 511.63 221.86C510.855 221.44 510.231 220.838 509.767 220.048C509.296 219.258 509.064 218.308 509.064 217.192C509.064 216.198 509.231 215.285 509.557 214.451C509.883 213.618 510.347 212.893 510.949 212.277C511.551 211.66 512.239 211.182 513.029 210.841C513.82 210.5 514.668 210.326 515.574 210.326C516.553 210.326 517.394 210.508 518.097 210.877C518.8 211.247 519.322 211.805 519.67 212.574C520.011 213.342 520.134 214.335 520.032 215.546C519.96 216.938 519.67 218.156 519.177 219.2C518.677 220.244 518.01 221.056 517.169 221.628C516.328 222.201 515.32 222.484 514.153 222.484ZM515.204 219.656C515.878 219.656 516.473 219.49 516.995 219.163C517.517 218.837 517.923 218.381 518.227 217.801C518.524 217.221 518.677 216.546 518.677 215.771C518.677 214.995 518.437 214.328 517.959 213.857C517.488 213.393 516.821 213.154 515.973 213.154C515.313 213.154 514.726 213.32 514.197 213.647C513.667 213.973 513.254 214.43 512.957 215.002C512.66 215.582 512.507 216.256 512.507 217.032C512.507 217.808 512.747 218.475 513.218 218.946C513.696 219.417 514.356 219.649 515.204 219.649V219.656ZM517.553 222.31L518.017 219.961L518.785 216.445L519.249 212.936L519.735 210.5H523.157L520.808 222.31H517.56H517.553Z" fill="white"/>
<path d="M523.965 222.31L526.314 210.5H529.562L528.88 213.857L528.576 212.893C529.105 211.943 529.794 211.276 530.642 210.899C531.49 210.522 532.505 210.326 533.694 210.326L533.078 213.487C532.933 213.473 532.795 213.458 532.672 213.451C532.549 213.451 532.418 213.444 532.288 213.444C531.28 213.444 530.454 213.69 529.823 214.19C529.185 214.683 528.757 215.495 528.54 216.604L527.394 222.31H523.973H523.965Z" fill="white"/>
<path d="M534.092 213.392L534.621 210.761H542.806L542.277 213.392H534.092ZM538.543 222.476C537.695 222.476 536.97 222.302 536.369 221.961C535.767 221.62 535.339 221.12 535.085 220.468C534.832 219.815 534.788 219.047 534.962 218.155L536.999 207.883H540.421L538.377 218.133C538.29 218.626 538.34 219.025 538.529 219.315C538.717 219.605 539.073 219.757 539.58 219.757C539.812 219.757 540.051 219.721 540.298 219.648C540.537 219.576 540.762 219.474 540.965 219.344L541.472 221.78C541.045 222.041 540.581 222.222 540.066 222.331C539.551 222.432 539.044 222.483 538.529 222.483L538.543 222.476Z" fill="white"/>
<path d="M548.348 222.471C547.384 222.471 546.551 222.261 545.847 221.848C545.144 221.427 544.651 220.818 544.354 220.014C544.064 219.209 544.028 218.216 544.267 217.027L545.565 210.488H548.986L547.739 216.809C547.566 217.672 547.631 218.339 547.95 218.803C548.261 219.274 548.827 219.506 549.624 219.506C550.473 219.506 551.183 219.26 551.763 218.76C552.343 218.259 552.727 217.498 552.916 216.476L554.126 210.481H557.548L555.199 222.29H551.951L552.611 218.955L553.097 219.963C552.539 220.826 551.85 221.456 551.009 221.862C550.175 222.261 549.291 222.464 548.356 222.464L548.348 222.471Z" fill="white"/>
<path d="M564.809 222.296L567.883 206.935H575.299C576.966 206.935 578.242 207.232 579.127 207.834C580.011 208.435 580.453 209.305 580.453 210.444C580.453 211.408 580.2 212.22 579.699 212.879C579.192 213.539 578.525 214.032 577.691 214.373C576.858 214.706 575.952 214.88 574.973 214.88L575.546 214.003C576.836 214.003 577.858 214.3 578.627 214.895C579.395 215.489 579.779 216.337 579.779 217.454C579.779 218.57 579.482 219.44 578.888 220.165C578.293 220.89 577.481 221.426 576.444 221.782C575.408 222.13 574.212 222.311 572.863 222.311H564.809V222.296ZM568.891 219.621H573.081C574.059 219.621 574.828 219.433 575.393 219.063C575.959 218.693 576.241 218.135 576.241 217.41C576.241 216.838 576.031 216.432 575.618 216.192C575.198 215.953 574.639 215.83 573.936 215.83H569.239L569.768 213.242H573.762C574.378 213.242 574.908 213.162 575.35 213.003C575.792 212.843 576.133 212.597 576.372 212.263C576.604 211.937 576.727 211.538 576.727 211.067C576.727 210.552 576.531 210.19 576.133 209.958C575.734 209.733 575.183 209.617 574.465 209.617H570.862L568.891 219.621Z" fill="white"/>
<path d="M586.711 222.484C585.805 222.484 584.964 222.274 584.188 221.86C583.413 221.44 582.789 220.838 582.325 220.048C581.861 219.258 581.622 218.308 581.622 217.192C581.622 216.198 581.789 215.285 582.115 214.451C582.441 213.618 582.905 212.893 583.507 212.277C584.109 211.66 584.797 211.182 585.588 210.841C586.378 210.5 587.226 210.326 588.132 210.326C589.111 210.326 589.952 210.508 590.655 210.877C591.358 211.247 591.88 211.805 592.228 212.574C592.569 213.342 592.692 214.335 592.59 215.546C592.518 216.938 592.228 218.156 591.735 219.2C591.235 220.244 590.568 221.056 589.727 221.628C588.886 222.201 587.878 222.484 586.711 222.484ZM587.762 219.656C588.437 219.656 589.031 219.49 589.553 219.163C590.075 218.837 590.481 218.381 590.785 217.801C591.083 217.221 591.235 216.546 591.235 215.771C591.235 214.995 590.996 214.328 590.517 213.857C590.046 213.393 589.379 213.154 588.531 213.154C587.871 213.154 587.284 213.32 586.755 213.647C586.225 213.973 585.812 214.43 585.515 215.002C585.218 215.582 585.066 216.256 585.066 217.032C585.066 217.808 585.305 218.475 585.776 218.946C586.254 219.417 586.914 219.649 587.762 219.649V219.656ZM590.111 222.31L590.575 219.961L591.344 216.445L591.808 212.936L592.293 210.5H595.715L593.366 222.31H590.118H590.111Z" fill="white"/>
<path d="M605.736 210.326C606.744 210.326 607.607 210.537 608.303 210.95C609.006 211.363 609.499 211.979 609.796 212.784C610.086 213.589 610.115 214.582 609.883 215.771L608.564 222.31H605.142L606.411 215.988C606.585 215.126 606.519 214.459 606.2 213.995C605.889 213.531 605.309 213.291 604.475 213.291C603.641 213.291 602.895 213.538 602.315 214.038C601.735 214.531 601.343 215.3 601.118 216.322L599.93 222.31H596.508L598.857 210.5H602.104L601.423 213.835L600.937 212.827C601.51 211.965 602.213 211.334 603.054 210.928C603.895 210.522 604.787 210.326 605.722 210.326H605.736Z" fill="white"/>
<path d="M611.676 222.298L614.924 206.016H618.346L615.098 222.298H611.676ZM615.098 219.927L615.845 215.694L622.188 210.489H626.639L620.035 215.998L618.121 217.405L615.091 219.927H615.098ZM620.564 222.298L617.534 217.339L619.926 214.729L624.537 222.305H620.564V222.298Z" fill="white"/>
<path d="M212.192 171.904H210.953V228.892H212.192V171.904Z" fill="#108EE9"/>
<path d="M469.875 171.903H468.635V228.891H469.875V171.903Z" fill="#108EE9"/>
<path d="M121.566 113.5C124.292 111.956 126.097 109.832 126.988 107.106C127.583 105.293 127.626 103.735 127.133 102.437C126.633 101.139 125.662 100.146 124.205 99.4648C124.06 99.3923 123.9 99.3343 123.748 99.2691C125.227 98.6094 126.51 97.7394 127.59 96.6738C128.837 95.4341 129.736 93.9987 130.265 92.3676C131.063 89.9173 130.686 87.9237 129.134 86.3868C127.583 84.8427 124.705 84.0742 120.507 84.0742H104.37L94.0034 115.805H111.047C115.339 115.805 118.847 115.037 121.573 113.492L121.566 113.5ZM117.252 90.5625C118.76 90.5625 119.811 90.809 120.406 91.3092C121 91.8094 121.124 92.5851 120.776 93.6435C120.449 94.6439 119.826 95.3979 118.905 95.9126C117.985 96.4273 116.767 96.681 115.252 96.681H109.09L111.09 90.5625H117.252ZM107.06 102.894H114.585C116.158 102.894 117.245 103.162 117.861 103.684C118.478 104.213 118.601 105.018 118.246 106.113C117.89 107.2 117.231 108.012 116.274 108.534C115.317 109.063 114.048 109.324 112.482 109.324H104.957L107.06 102.887V102.894Z" fill="white"/>
<path d="M131.744 112.596C133.52 115.162 136.746 116.445 141.429 116.445C146.113 116.445 150.151 115.162 153.638 112.596C157.117 110.03 159.626 106.405 161.155 101.714L166.919 84.0837H158.038L152.369 101.446C151.492 104.136 150.339 106.071 148.911 107.246C147.483 108.427 145.83 109.015 143.96 109.015C142.089 109.015 140.813 108.427 140.139 107.246C139.465 106.064 139.566 104.136 140.451 101.446L146.12 84.0837H137.145L131.382 101.714C129.852 106.398 129.975 110.022 131.744 112.596Z" fill="white"/>
<path d="M170.602 115.817L173.197 107.872L177.699 104.305L183.02 115.824H201.47L205.994 109.612H219.412L219.876 115.824H229.214L225.531 84.0935H216.694L193.039 114.889L185.615 98.1574L203.101 84.1008H193.264L176.677 97.2802L180.983 84.1008H172.146L161.779 115.832H170.616L170.602 115.817ZM218.158 92.8871L218.912 103.029H210.771L218.158 92.8871Z" fill="white"/>
<path d="M246.061 98.9016L254.543 115.815H261.93L272.297 84.0837H263.503L257.987 100.982L249.548 84.0837H242.154L231.787 115.815H240.537L246.061 98.9016Z" fill="white"/>
<path d="M297.034 114.184C300.115 112.886 302.798 111.052 305.067 108.674C307.336 106.304 309.003 103.484 310.069 100.222C311.127 96.9883 311.294 94.19 310.562 91.8339C309.837 89.4779 308.358 87.651 306.125 86.3461C303.892 85.0484 301.036 84.396 297.563 84.396H282.557L272.19 116.127H287.197C290.669 116.127 293.953 115.474 297.034 114.177V114.184ZM289.198 91.5657H294.772C296.614 91.5657 298.093 91.9137 299.216 92.6096C300.333 93.3056 301.058 94.2915 301.398 95.5819C301.732 96.865 301.601 98.4309 301 100.272C300.42 102.056 299.535 103.607 298.346 104.919C297.165 106.231 295.78 107.239 294.214 107.935C292.641 108.631 290.937 108.979 289.089 108.979H283.514L289.198 91.573V91.5657Z" fill="url(#paint0_linear_3434_14051)"/>
<path d="M348.419 100.217C349.202 97.8319 349.47 95.6426 349.231 93.6417C348.991 91.6481 348.325 89.9083 347.237 88.4294C346.15 86.9505 344.664 85.7978 342.786 84.9859C340.908 84.1667 338.697 83.7607 336.16 83.7607C333.623 83.7607 331.143 84.1667 328.736 84.9859C326.322 85.8051 324.09 86.9578 322.031 88.4511C319.972 89.9445 318.167 91.6916 316.623 93.6852C315.079 95.6788 313.926 97.8537 313.15 100.21C312.367 102.595 312.099 104.799 312.331 106.807C312.563 108.815 313.223 110.569 314.31 112.063C315.39 113.556 316.884 114.716 318.776 115.528C320.668 116.347 322.872 116.753 325.38 116.753C327.888 116.753 330.389 116.347 332.803 115.528C335.218 114.709 337.458 113.563 339.524 112.084C341.597 110.605 343.395 108.858 344.932 106.85C346.461 104.842 347.629 102.631 348.419 100.21V100.217ZM339.335 100.26C338.878 101.652 338.255 102.899 337.458 104.001C336.66 105.103 335.747 106.06 334.71 106.857C333.681 107.662 332.571 108.271 331.39 108.692C330.208 109.112 329.012 109.33 327.809 109.33C326.605 109.33 325.547 109.119 324.641 108.692C323.734 108.271 323.024 107.655 322.495 106.857C321.973 106.06 321.676 105.103 321.618 104.001C321.552 102.899 321.748 101.652 322.205 100.26C322.661 98.8686 323.278 97.6217 324.061 96.5198C324.844 95.4179 325.757 94.4682 326.808 93.6635C327.852 92.8661 328.968 92.2499 330.15 91.8294C331.332 91.4089 332.528 91.1914 333.731 91.1914C334.935 91.1914 335.993 91.4017 336.899 91.8294C337.806 92.2499 338.509 92.8661 339.016 93.6635C339.524 94.4609 339.821 95.4179 339.893 96.5198C339.973 97.6217 339.785 98.8686 339.328 100.26H339.335Z" fill="url(#paint1_linear_3434_14051)"/>
<path d="M383.013 116.133L393.337 84.4021H385.95L369.058 102.736L363.918 84.4021H356.531L346.165 116.133H354.414L359.765 99.7709L363.549 113.001H367.536L380.186 99.2997L374.764 116.133H383.013Z" fill="url(#paint2_linear_3434_14051)"/>
<path d="M423.937 89.8621C423.379 88.0932 422.197 86.7448 420.392 85.8024C418.58 84.8672 416.231 84.396 413.324 84.396H398.861L388.495 116.127H397.469L400.181 107.833H405.669C408.568 107.833 411.229 107.355 413.657 106.405C416.086 105.456 418.145 104.107 419.849 102.375C421.552 100.635 422.799 98.5469 423.596 96.0966C424.379 93.7115 424.488 91.6309 423.93 89.8621H423.937ZM414.578 96.0966C414.092 97.5755 413.252 98.7209 412.055 99.5183C410.859 100.323 409.322 100.722 407.445 100.722H402.501L405.524 91.4787H410.468C412.338 91.4787 413.607 91.8919 414.274 92.7256C414.941 93.5593 415.042 94.683 414.578 96.1039V96.0966Z" fill="url(#paint3_linear_3434_14051)"/>
<path d="M420.542 116.135H445.973L448.249 109.154H431.662L433.562 103.347H447.654L449.829 96.6846H435.736L437.469 91.3853H453.469L455.752 84.4041H430.908L420.542 116.135Z" fill="url(#paint4_linear_3434_14051)"/>
<path d="M458.333 84.4031L456.006 91.522H465.75L457.71 116.134H466.685L474.724 91.522H484.424L486.751 84.4031H458.333Z" fill="url(#paint5_linear_3434_14051)"/>
<path d="M521.454 92.6945C522.252 90.2442 521.875 88.2506 520.331 86.7137C518.779 85.1696 515.901 84.4011 511.704 84.4011H495.566L485.2 116.132H502.243C506.535 116.132 510.044 115.364 512.769 113.819C515.495 112.275 517.3 110.151 518.192 107.425C518.786 105.613 518.83 104.054 518.337 102.757C517.837 101.459 516.865 100.466 515.408 99.7845C515.263 99.712 515.104 99.654 514.951 99.5887C516.43 98.929 517.714 98.0591 518.794 96.9934C520.041 95.7538 520.94 94.3184 521.469 92.6872L521.454 92.6945ZM508.449 90.8821C509.957 90.8821 511.008 91.1286 511.602 91.6288C512.197 92.129 512.32 92.9047 511.972 93.9631C511.646 94.9636 511.022 95.7175 510.102 96.2322C509.181 96.7469 507.963 97.0007 506.448 97.0007H500.286L502.287 90.8821H508.449ZM509.442 106.432C509.087 107.52 508.427 108.332 507.47 108.854C506.513 109.383 505.244 109.644 503.679 109.644H496.154L498.256 103.206H505.781C507.354 103.206 508.441 103.474 509.058 103.996C509.674 104.526 509.797 105.33 509.442 106.425V106.432Z" fill="white"/>
<path d="M529.5 84.4011L519.133 116.132H528.108L538.474 84.4011H529.5Z" fill="white"/>
<path d="M555.02 84.4011L530.647 116.132H539.803L544.327 109.919H557.745L558.209 116.132H567.547L563.864 84.4011H555.027H555.02ZM549.111 103.344L556.499 93.202L557.252 103.344H549.111Z" fill="white"/>
<path d="M598.836 102.367C598.531 101.265 597.951 100.373 597.103 99.6915C596.255 99.0101 595.262 98.4664 594.123 98.0604C592.985 97.6544 591.818 97.3137 590.629 97.0382C589.433 96.7628 588.346 96.5018 587.374 96.248C586.403 95.9943 585.649 95.6609 585.12 95.2476C584.59 94.8417 584.438 94.2762 584.677 93.5513C584.837 93.0655 585.149 92.6161 585.62 92.1884C586.091 91.7679 586.751 91.4199 587.592 91.1444C588.433 90.869 589.476 90.7385 590.716 90.7385C592.108 90.7385 593.478 90.9342 594.827 91.3257C596.175 91.7171 597.473 92.3406 598.705 93.1815L603.584 86.5628C602.352 85.6276 600.8 84.9244 598.944 84.4532C597.088 83.982 595.117 83.75 593.029 83.75C589.919 83.75 587.164 84.2212 584.772 85.1564C582.379 86.0916 580.422 87.3312 578.885 88.8754C577.355 90.4195 576.282 92.1231 575.674 94.0007C575.123 95.6898 574.985 97.0962 575.268 98.2127C575.55 99.3291 576.109 100.235 576.942 100.931C577.776 101.627 578.769 102.185 579.929 102.606C581.089 103.026 582.256 103.367 583.423 103.628C584.59 103.882 585.67 104.157 586.649 104.447C587.628 104.737 588.382 105.085 588.918 105.491C589.447 105.897 589.6 106.448 589.375 107.144C589.194 107.688 588.868 108.159 588.396 108.55C587.918 108.942 587.28 109.246 586.468 109.457C585.656 109.667 584.619 109.776 583.351 109.776C581.509 109.776 579.755 109.478 578.088 108.891C576.42 108.304 575.028 107.557 573.905 106.651L568.779 113.313C569.932 114.314 571.607 115.133 573.796 115.785C575.985 116.438 578.392 116.757 581.024 116.757C584.163 116.757 586.932 116.286 589.324 115.35C591.717 114.415 593.688 113.168 595.24 111.61C596.791 110.051 597.864 108.355 598.473 106.513C599.017 104.853 599.133 103.469 598.828 102.367H598.836Z" fill="white"/>
<path d="M619.982 84.4011L595.609 116.132H604.765L609.289 109.919H622.707L623.171 116.132H632.509L628.826 84.4011H619.989H619.982ZM614.073 103.344L621.46 93.202L622.214 103.344H614.073Z" fill="white"/>
<path d="M64.3964 111.65L77.0032 83.4714H93.7784L96.5405 75.0113H80.7874L87.7904 59.3598H79.4825L72.4796 75.0113H44.6489L58.7708 44.2012H50.3107L36.2468 75.0113H14.9044L12.1423 83.4714H32.3828L19.515 111.65H2.76155L-0.000488281 120.11H15.6511L8.50312 135.762H16.811L23.9807 120.11H52.2971L38.0809 151.87H46.3888L60.6049 120.11H81.9618L84.7239 111.65H64.3892H64.3964ZM67.173 86.8859L65.0561 91.6126H58.7201C55.4723 91.6126 51.9418 94.0412 50.4992 97.2672C48.7883 101.095 50.6732 104.459 54.5227 104.459H59.3073L57.2919 108.968C56.6032 110.497 54.9286 111.65 53.3917 111.65H31.3462C29.5048 111.65 28.6131 110.033 29.4468 108.207L39.567 86.1247C40.263 84.6096 41.9231 83.4714 43.4527 83.4714H65.2591C67.086 83.4714 67.9849 85.0663 67.173 86.8859ZM59.8727 98.0356C59.387 99.529 57.7704 100.747 56.277 100.747C54.7836 100.747 53.9644 99.5362 54.4502 98.0356C54.9359 96.5422 56.5525 95.3243 58.0459 95.3243C59.5393 95.3243 60.3585 96.535 59.8727 98.0356Z" fill="white"/>
</g>
<defs>
<linearGradient id="paint0_linear_3434_14051" x1="184.015" y1="-55.2066" x2="332.027" y2="163.727" gradientUnits="userSpaceOnUse">
<stop offset="0.03" stop-color="#008EEF"/>
<stop offset="1" stop-color="#1CBEFC"/>
</linearGradient>
<linearGradient id="paint1_linear_3434_14051" x1="212.608" y1="-74.5382" x2="360.62" y2="144.395" gradientUnits="userSpaceOnUse">
<stop offset="0.03" stop-color="#008EEF"/>
<stop offset="1" stop-color="#1CBEFC"/>
</linearGradient>
<linearGradient id="paint2_linear_3434_14051" x1="239.351" y1="-92.6149" x2="387.363" y2="126.318" gradientUnits="userSpaceOnUse">
<stop offset="0.03" stop-color="#008EEF"/>
<stop offset="1" stop-color="#1CBEFC"/>
</linearGradient>
<linearGradient id="paint3_linear_3434_14051" x1="263.231" y1="-108.758" x2="411.236" y2="110.175" gradientUnits="userSpaceOnUse">
<stop offset="0.03" stop-color="#008EEF"/>
<stop offset="1" stop-color="#1CBEFC"/>
</linearGradient>
<linearGradient id="paint4_linear_3434_14051" x1="286.289" y1="-124.351" x2="434.301" y2="94.5824" gradientUnits="userSpaceOnUse">
<stop offset="0.03" stop-color="#008EEF"/>
<stop offset="1" stop-color="#1CBEFC"/>
</linearGradient>
<linearGradient id="paint5_linear_3434_14051" x1="309.684" y1="-140.17" x2="457.695" y2="78.763" gradientUnits="userSpaceOnUse">
<stop offset="0.03" stop-color="#008EEF"/>
<stop offset="1" stop-color="#1CBEFC"/>
</linearGradient>
<clipPath id="clip0_3434_14051">
<rect width="632.5" height="236.484" fill="white"/>
</clipPath>
</defs>
</svg>
